<?xml version="1.0" encoding="UTF-8" standalone="no"?>
<svg
   xmlns:dc="http://purl.org/dc/elements/1.1/"
   xmlns:cc="http://creativecommons.org/ns#"
   xmlns:rdf="http://www.w3.org/1999/02/22-rdf-syntax-ns#"
   xmlns:svg="http://www.w3.org/2000/svg"
   xmlns="http://www.w3.org/2000/svg"
   xmlns:sodipodi="http://sodipodi.sourceforge.net/DTD/sodipodi-0.dtd"
   xmlns:inkscape="http://www.inkscape.org/namespaces/inkscape"
   width="376.73001"
   height="156.42"
   viewBox="0 0 301.384 125.136"
   version="1.1"
   id="svg2"
   inkscape:version="0.47 r22583"
   sodipodi:docname="Toontown-Logo.svg">
  <metadata
     id="metadata255">
    <rdf:RDF>
      <cc:Work
         rdf:about="">
        <dc:format>image/svg+xml</dc:format>
        <dc:type
           rdf:resource="http://purl.org/dc/dcmitype/StillImage" />
      </cc:Work>
    </rdf:RDF>
  </metadata>
  <defs
     id="defs253">
    <inkscape:perspective
       sodipodi:type="inkscape:persp3d"
       inkscape:vp_x="0 : 403.75 : 1"
       inkscape:vp_y="0 : 1000 : 0"
       inkscape:vp_z="1865 : 403.75 : 1"
       inkscape:persp3d-origin="932.5 : 269.16667 : 1"
       id="perspective257" />
  </defs>
  <sodipodi:namedview
     pagecolor="#ffffff"
     bordercolor="#666666"
     borderopacity="1"
     objecttolerance="10"
     gridtolerance="10"
     guidetolerance="10"
     inkscape:pageopacity="0"
     inkscape:pageshadow="2"
     inkscape:window-width="1680"
     inkscape:window-height="940"
     id="namedview251"
     showgrid="false"
     inkscape:zoom="1.6348764"
     inkscape:cx="353.57193"
     inkscape:cy="137.69748"
     inkscape:window-x="541"
     inkscape:window-y="0"
     inkscape:window-maximized="0"
     inkscape:current-layer="svg2" />
  <g
     id="#ffffffff"
     transform="matrix(0.20086954,0,0,0.20086954,2.1898178,-0.31233958)">
    <path
       d="m 476.1,59.82 c 13.26,-4.46 27.74,-3.55 41.11,-0.06 19.4,5.3 37.71,15.8 50.79,31.25 5.92,7.29 10.75,16.38 9.89,26.05 -0.61,7.76 -5.67,14.43 -11.86,18.81 -12.91,9.15 -29.97,9.75 -44.91,6.21 -0.48,1.52 -0.48,3.27 -1.44,4.6 -1.46,1.93 -4.16,0.76 -6.18,0.93 -1.8,-2.85 -2.23,-6.19 -2.56,-9.47 -6.99,-3.73 -13.57,-8.34 -19.17,-13.97 -2.55,-2.59 -5.03,-5.55 -5.77,-9.2 -0.01,-3.41 2.73,-5.93 5.49,-7.47 6.13,-3.55 13.05,-5.46 19.93,-6.93 0.53,-6.84 0.48,-13.94 3.43,-20.3 1.8,0.77 3.5,1.94 4.21,3.86 2.01,4.88 1.33,10.27 1.47,15.41 9.12,0.27 18.69,0.56 26.94,4.93 3.17,1.63 5.96,4.79 5.56,8.58 0.2,3.97 -3.54,6.17 -6.18,8.39 -1.88,-0.62 -6.12,0.52 -5.84,-2.38 1.55,-1.7 3.33,-3.19 4.68,-5.08 -7.99,-2.98 -16.55,-5.77 -25.17,-5.12 0.02,8.44 0.25,16.89 0.49,25.33 13.11,2.61 27.91,1.98 39.02,-6.25 6.51,-4.36 8.64,-13.29 6.29,-20.52 -2.93,-9.27 -9.77,-16.7 -17.24,-22.63 -15.52,-12 -34.7,-19.13 -54.18,-20.9 -6.62,-0.18 -13.72,-0.74 -19.89,2.1 1.62,0.87 4.66,0.42 4.96,2.75 -2.9,2.47 -7.21,1.06 -10.03,-0.83 1.34,-3.1 2.4,-7.17 6.16,-8.09 m 15.09,53.41 c -1.26,0.27 -1.92,1.38 -2.06,2.58 0.88,2.85 3.57,4.55 5.78,6.33 4.89,3.4 10.11,6.36 15.6,8.68 0.11,-7.17 0.79,-14.32 0.86,-21.49 -6.79,0.8 -13.73,1.46 -20.18,3.9 z"
       id="path5"
       style="fill:#ffffff" />
    <path
       d="m 666.1,93.9 c 5.7,2.11 8.21,8.27 10.22,13.53 2.51,7.88 4.14,17.15 0.07,24.79 -1.52,2.22 -3.93,5.26 -6.97,4.39 -2.66,-1.18 -4.17,-3.84 -5.71,-6.16 -2.92,-4.96 -5.53,-10.1 -8.12,-15.23 -1.65,7.3 0.1,14.97 -2.04,22.19 -0.93,3.15 -5.43,1.79 -6.06,-0.86 -1.85,-5.37 -0.81,-11.18 -0.06,-16.66 1.15,-5.92 2.12,-12.14 5.51,-17.26 1.63,0.69 3.23,1.57 4.29,3.03 4.38,5.5 7.8,11.67 11.53,17.61 0.47,0.88 1.18,1.53 2.13,1.93 -1.03,-10.52 -4.89,-20.68 -4.79,-31.3 z"
       id="path7"
       style="fill:#ffffff" />
    <path
       d="m 687.12,102.47 c 8.11,-2.09 16.7,-4.13 25.08,-2.63 3.38,0.37 5.62,3.3 5.55,6.65 -5.18,2.42 -11.05,2.03 -16.61,1.97 -0.51,1.73 -1.05,3.45 -1.55,5.19 3.31,-0.06 7.02,-1.14 10.05,0.72 1.55,1.11 1.27,3.22 1.69,4.87 -3.87,2.19 -8.38,0.74 -12.52,1.5 -3.44,0.87 -3.01,5.12 -3.67,7.85 5.26,-0.58 10.49,-2.83 15.81,-1.77 1.15,1.15 2.09,3.02 1.58,4.68 -4.8,4.14 -10.66,7.39 -16.98,8.35 -3.55,0.61 -7.44,-1.22 -8.68,-4.7 -2.55,-6.24 0.31,-12.89 1.32,-19.15 2.64,-2.04 4.55,-4.82 5.62,-7.98 -2.39,-1.31 -6.95,-2.1 -6.69,-5.55 z"
       id="path9"
       style="fill:#ffffff" />
    <path
       d="m 589.19,100.25 c 2.83,-1.21 4.25,2.51 4.8,4.66 1.71,10.85 2.01,21.9 1.63,32.87 -1.8,0.54 -3.71,1.73 -5.6,0.91 -2,-0.46 -2.84,-2.71 -2.94,-4.55 -0.71,-8.38 -0.23,-16.8 0.23,-25.18 0.31,-2.94 0.29,-6.11 1.88,-8.71 z"
       id="path11"
       style="fill:#ffffff" />
    <path
       d="m 876.44,156.6 c 18.32,-8.37 38.16,-13.17 58.1,-15.58 -0.14,11.25 -0.38,22.5 -0.74,33.75 -0.41,3.69 -0.18,7.41 -0.65,11.09 -0.46,1.4 -2.34,1.25 -3.45,1.82 -27.29,7.55 -54.51,15.33 -81.76,23.02 0.3,-2.29 0.62,-4.58 0.95,-6.86 7.36,-4.19 14.63,-8.57 21.71,-13.22 2.25,-11.27 3.88,-22.69 5.84,-34.02 z"
       id="path13"
       style="fill:#ffffff" />
    <path
       d="m 947.39,247.8 c 19.9,-5.44 39.76,-11.04 59.63,-16.56 0.19,9.48 -0.25,19.01 -2.36,28.29 -10.13,6.59 -20.09,13.45 -30.22,20.05 0.48,7.81 0.37,15.65 -0.33,23.44 -15.85,4.08 -31.41,9.22 -47.31,13.09 -0.21,-2.74 -0.44,-5.48 -0.63,-8.22 -0.64,-12.52 -3.35,-25.67 -11.44,-35.63 -4.72,-5.92 -12.15,-9.37 -19.71,-9.32 12.5,-4.65 25.67,-7.21 38.37,-11.25 7.61,12.55 12.24,26.9 13.34,41.54 0.89,-0.49 1.8,-0.98 2.72,-1.46 1.04,-14.65 1.1,-29.55 -2.06,-43.97 z"
       id="path15"
       style="fill:#ffffff" />
    <path
       d="m 527.15,272.33 c 5.58,-7.93 14.22,-13.97 23.87,-15.58 6.13,-0.72 12.8,-0.38 18.1,3.15 11.92,6.91 18.39,20.24 21.23,33.26 4.28,20.14 1.08,41.65 -8.22,59.96 -2.47,4.7 -5.82,8.86 -9.36,12.79 -0.3,0.89 -0.88,1.39 -1.74,1.49 -5.42,0.69 -10.49,3.25 -16.02,3.14 -9.37,0.36 -18.46,-4.04 -24.84,-10.74 -9.79,-11.17 -15.43,-26.04 -14.83,-40.94 -0.41,-10.22 3.69,-20 3.44,-30.18 -0.08,-0.7 -0.24,-2.11 -0.32,-2.81 -0.04,-0.38 -0.14,-1.13 -0.18,-1.51 l 1.38,0.23 c -0.11,-0.52 -0.32,-1.57 -0.42,-2.09 l 1.51,0.01 c -0.13,-0.5 -0.39,-1.51 -0.52,-2.01 l 1.12,0.22 c 0.85,-2.16 1.94,-4.5 4.07,-5.67 -0.02,-0.34 -0.04,-1.03 -0.06,-1.37 l 1.22,-0.11 -0.2,-1.14 0.77,-0.1 m 27.77,19.14 c 3.11,2.33 6.28,4.75 8.41,8.06 4.06,5.94 4.75,13.34 4.46,20.33 -5.39,-8.04 -14.16,-14.29 -24.06,-14.68 -4.62,12.17 -4.74,26.66 2.1,38.04 3.24,5.54 9.39,9.99 16.06,9.14 5.78,-0.51 10.39,-4.71 13.57,-9.26 6.34,-9.45 7.76,-21.51 5.78,-32.54 -1.53,-7.17 -4.87,-14.5 -11.21,-18.61 -4.5,-2.94 -10.38,-2.77 -15.11,-0.48 z"
       id="path17"
       style="fill:#ffffff" />
    <path
       d="m 879.86,266.71 c 1.06,-0.16 2.13,-0.23 3.22,-0.18 -8.32,4.56 -14.61,12.03 -19.57,19.99 -9.58,15.74 -14.6,34.05 -15.69,52.38 -12.43,3.45 -24.82,7 -37.21,10.59 2.47,-10.9 5.49,-21.73 10.18,-31.91 -7.67,-3.84 -15.44,-7.47 -23.08,-11.36 0.7,-5.96 1.43,-11.97 0.79,-17.97 12.56,0.28 25.07,1.84 37.59,2.82 0.6,-4.35 1.24,-8.7 1.97,-13.03 14.08,-3.16 27.83,-7.7 41.8,-11.33 z"
       id="path19"
       style="fill:#ffffff" />
    <path
       d="m 989.01,323.22 c 2.01,0.63 3.84,1.7 5.77,2.53 -0.09,3.92 -0.65,7.8 -1.21,11.67 -25.67,7.6 -51.61,14.21 -77.31,21.7 2.45,-5.56 4.48,-11.3 6.05,-17.18 22.32,-5.92 44.46,-12.5 66.7,-18.72 z"
       id="path21"
       style="fill:#ffffff" />
    <path
       d="m 787.25,380.08 c 20.89,-5.2 41.4,-11.84 62.25,-17.22 0.87,4.16 2.22,8.21 3.87,12.13 -0.01,0.4 -0.04,1.2 -0.05,1.6 -7.66,2.04 -15.32,4.15 -22.92,6.39 -1.25,-4.46 -2.1,-9.02 -2.85,-13.58 -1.26,0.81 -2.47,1.68 -3.62,2.62 -1,4 -0.81,8.21 -1.05,12.31 -1.88,1.05 -3.88,1.89 -5.97,2.4 -10.19,2.58 -20.23,5.68 -30.41,8.27 -0.17,-4.99 0.22,-9.96 0.75,-14.92 z"
       id="path23"
       style="fill:#ffffff" />
    <path
       d="m 809.16,448.92 c 7.93,-2.17 15.85,-4.35 23.79,-6.46 2.34,4.6 5.21,8.94 8.65,12.81 -9.86,2.99 -19.85,5.56 -29.69,8.61 -2.84,0.91 -5.75,1.67 -8.73,1.85 1.96,-5.59 3.42,-11.56 5.98,-16.81 z"
       id="path25"
       style="fill:#ffffff" />
    <path
       d="m 847.27,480.83 c 29.15,-8.57 58.45,-16.66 87.65,-25.07 l 0.73,0.18 c 0.58,1.02 1.13,2.07 1.64,3.15 -4.08,11.08 -10.33,21.33 -18.08,30.21 -6.46,7.06 -13.95,13.56 -23.01,16.96 -9.48,-9.39 -19.09,-18.65 -28.65,-27.96 -4.43,1.25 -8.82,2.8 -13.44,3.22 -2.3,-0.11 -4.58,-0.39 -6.84,-0.69 z"
       id="path27"
       style="fill:#ffffff" />
    <path
       d="m 805.23,492.83 c 13.52,-3.99 27.05,-8.09 40.74,-11.47 0.34,0.06 1.02,0.2 1.36,0.26 -8.05,9.56 -15.52,19.6 -23.22,29.44 -4.16,-2.5 -8.53,-4.81 -11.96,-8.3 -2.82,-2.92 -4.95,-6.41 -6.92,-9.93 z"
       id="path29"
       style="fill:#ffffff" />
  </g>
  <g
     id="#000000ff"
     transform="matrix(0.20086954,0,0,0.20086954,2.1898178,-0.31233958)">
    <path
       d="m 473.51,53.34 c 17.32,-5.77 36.39,-3.78 53.39,2.15 16.28,5.83 31.65,14.96 43.41,27.77 0.71,-12.7 12.08,-22.39 23.9,-25 5.06,-1.11 10.73,-0.6 14.98,2.59 2.82,2.25 6.67,2.92 9.07,5.75 3.56,3.89 3.65,9.79 1.88,14.5 -3.49,8.97 -11.53,15.79 -20.65,18.58 0.18,0.38 0.55,1.15 0.74,1.53 8.02,-6.42 18.62,-8.31 28.64,-8.41 6.25,0.17 13.8,0.96 17.4,6.85 3.06,-3.88 8.49,-4.44 12.66,-2.05 -0.54,-4.27 1.13,-9.65 6.07,-10.24 7.39,-1.01 12.52,6.03 15.4,11.89 1.82,-1.6 3.59,-3.5 6.1,-3.9 8.45,-2.04 17.24,-3.9 25.95,-2.59 4.26,0.6 8.12,2.91 10.64,6.41 2.66,-3.32 6.49,-6.34 11,-5.9 3.25,0.15 5.67,2.81 6.79,5.68 3.34,-1.67 7.06,-2.65 10.81,-2.02 0.26,-0.35 0.78,-1.06 1.03,-1.41 -6.66,-4.71 -4.56,-16.14 2.8,-18.86 3.91,-1.1 8.43,-0.32 11.54,2.4 4.46,3.86 6.57,9.82 6.5,15.62 8.47,-2.06 17.72,-3.08 26.08,0 4.99,1.76 8.43,7.53 6.61,12.71 -0.65,2.64 -3.06,4.06 -5.03,5.62 7.88,8.24 6.16,24.32 -4.36,29.6 -6.61,3.54 -14.5,4.12 -21.78,2.76 -7.06,-1.38 -14.11,-5.44 -16.94,-12.36 -4.72,8.05 -13.13,13.18 -22.1,15.15 -2.29,5.22 -3.27,11.14 -4.82,16.7 -1.12,4.31 -1.29,8.93 -3.23,12.99 -2.26,3.4 -7.02,3.27 -10.54,2.4 -5.31,-1.41 -8.39,-6.64 -9.38,-11.72 -1.25,-9.49 1.45,-18.9 4.15,-27.91 -6.49,3.82 -14.02,7.64 -21.76,5.88 -4.38,-0.85 -7.88,-4.05 -9.89,-7.92 -2.84,2.8 -6.37,5.51 -10.56,5.4 -3.76,-0.45 -7.02,-2.71 -9.3,-5.64 -1.06,3.68 -3.69,7.21 -7.71,7.76 -4.96,1.14 -9.68,-2 -11.91,-6.28 -5.76,4.97 -13.68,6.57 -21.1,6.12 -6.31,-0.49 -12.77,-2.47 -17.41,-6.95 -2.71,7.29 -13.35,9.27 -18.85,4.01 -3.05,-2.78 -3.83,-7.1 -3.87,-11.05 -7.94,11.19 -21.34,17.49 -34.75,18.87 -6.45,0.82 -12.95,0.36 -19.37,-0.45 -4.32,6.82 -16.63,6.2 -19.68,-1.5 -0.98,-1.92 -1.31,-4.06 -1.74,-6.14 -7.29,-4.53 -14.45,-9.57 -20.02,-16.17 -3.16,-3.78 -5.96,-8.52 -5.25,-13.64 0.71,-4.92 4.45,-8.72 8.54,-11.2 5.27,-3.17 11.17,-5.09 17.07,-6.73 0.77,-7.22 0.88,-15.97 7.08,-20.91 -8.14,-2.12 -16.5,-3.49 -24.92,-3.36 -1.32,2.64 -3.35,5.16 -6.36,5.87 -4.87,1.11 -10.35,0.42 -14.39,-2.69 -2.59,-2.04 -3.49,-5.73 -2.53,-8.83 1.59,-4.97 4.62,-10.2 9.97,-11.73 m 2.59,6.48 c -3.76,0.92 -4.82,4.99 -6.16,8.09 2.82,1.89 7.13,3.3 10.03,0.83 -0.3,-2.33 -3.34,-1.88 -4.96,-2.75 6.17,-2.84 13.27,-2.28 19.89,-2.1 19.48,1.77 38.66,8.9 54.18,20.9 7.47,5.93 14.31,13.36 17.24,22.63 2.35,7.23 0.22,16.16 -6.29,20.52 -11.11,8.23 -25.91,8.86 -39.02,6.25 -0.24,-8.44 -0.47,-16.89 -0.49,-25.33 8.62,-0.65 17.18,2.14 25.17,5.12 -1.35,1.89 -3.13,3.38 -4.68,5.08 -0.28,2.9 3.96,1.76 5.84,2.38 2.64,-2.22 6.38,-4.42 6.18,-8.39 0.4,-3.79 -2.39,-6.95 -5.56,-8.58 -8.25,-4.37 -17.82,-4.66 -26.94,-4.93 -0.14,-5.14 0.54,-10.53 -1.47,-15.41 -0.71,-1.92 -2.41,-3.09 -4.21,-3.86 -2.95,6.36 -2.9,13.46 -3.43,20.3 -6.88,1.47 -13.8,3.38 -19.93,6.93 -2.76,1.54 -5.5,4.06 -5.49,7.47 0.74,3.65 3.22,6.61 5.77,9.2 5.6,5.63 12.18,10.24 19.17,13.97 0.33,3.28 0.76,6.62 2.56,9.47 2.02,-0.17 4.72,1 6.18,-0.93 0.96,-1.33 0.96,-3.08 1.44,-4.6 14.94,3.54 32,2.94 44.91,-6.21 6.19,-4.38 11.25,-11.05 11.86,-18.81 C 578.75,107.39 573.92,98.3 568,91.01 554.92,75.56 536.61,65.06 517.21,59.76 503.84,56.27 489.36,55.36 476.1,59.82 m 102.99,17.29 c -1.71,3.19 -2.05,7.47 0.14,10.52 1.95,2.41 0.92,5.93 2.87,8.36 2.15,1.17 3.28,-1.29 4.16,-2.78 9.62,2.16 19.99,-2.61 25.37,-10.7 1.79,-2.76 3.16,-6.07 2.49,-9.42 -0.81,-2.93 -4.09,-3.82 -6.69,-4.46 -2.89,-3.87 -8.16,-4.65 -12.58,-3.4 -6.49,1.7 -12.56,5.9 -15.76,11.88 m -55.42,1.2 c 2.84,4.3 3.67,9.45 3.95,14.49 9.93,0.69 20.38,2.53 28.24,9.1 C 547.89,90.91 536,83.53 523.67,78.31 m 233.59,4.89 c -0.8,1.58 -1.87,3.17 -1.51,5.04 1.44,2.73 5.55,3.41 6.05,6.74 0.28,3.17 -4.47,3.87 -3.83,7.06 3.26,-0.06 6.9,-1.65 7.84,-5.04 2.3,-5.66 -1.42,-14.9 -8.55,-13.8 M 666.1,93.9 c -0.1,10.62 3.76,20.78 4.79,31.3 -0.95,-0.4 -1.66,-1.05 -2.13,-1.93 -3.73,-5.94 -7.15,-12.11 -11.53,-17.61 -1.06,-1.46 -2.66,-2.34 -4.29,-3.03 -3.39,5.12 -4.36,11.34 -5.51,17.26 -0.75,5.48 -1.79,11.29 0.06,16.66 0.63,2.65 5.13,4.01 6.06,0.86 2.14,-7.22 0.39,-14.89 2.04,-22.19 2.59,5.13 5.2,10.27 8.12,15.23 1.54,2.32 3.05,4.98 5.71,6.16 3.04,0.87 5.45,-2.17 6.97,-4.39 4.07,-7.64 2.44,-16.91 -0.07,-24.79 -2.01,-5.26 -4.52,-11.42 -10.22,-13.53 m 21.02,8.57 c -0.26,3.45 4.3,4.24 6.69,5.55 -1.07,3.16 -2.98,5.94 -5.62,7.98 -1.01,6.26 -3.87,12.91 -1.32,19.15 1.24,3.48 5.13,5.31 8.68,4.7 6.32,-0.96 12.18,-4.21 16.98,-8.35 0.51,-1.66 -0.43,-3.53 -1.58,-4.68 -5.32,-1.06 -10.55,1.19 -15.81,1.77 0.66,-2.73 0.23,-6.98 3.67,-7.85 4.14,-0.76 8.65,0.69 12.52,-1.5 -0.42,-1.65 -0.14,-3.76 -1.69,-4.87 -3.03,-1.86 -6.74,-0.78 -10.05,-0.72 0.5,-1.74 1.04,-3.46 1.55,-5.19 5.56,0.06 11.43,0.45 16.61,-1.97 0.07,-3.35 -2.17,-6.28 -5.55,-6.65 -8.38,-1.5 -16.97,0.54 -25.08,2.63 m -97.93,-2.22 c -1.59,2.6 -1.57,5.77 -1.88,8.71 -0.46,8.38 -0.94,16.8 -0.23,25.18 0.1,1.84 0.94,4.09 2.94,4.55 1.89,0.82 3.8,-0.37 5.6,-0.91 0.38,-10.97 0.08,-22.02 -1.63,-32.87 -0.55,-2.15 -1.97,-5.87 -4.8,-4.66 m 28.91,0.58 c -5.53,1.23 -11.88,2.97 -14.96,8.17 -1.85,2.81 -1.04,7.39 2.44,8.46 7.85,2.72 16.61,0.5 24.36,3.71 1.8,0.61 2.67,2.36 3.6,3.88 -1.37,2.29 -3.8,3.43 -6.13,4.48 -0.83,-0.48 -1.66,-0.98 -2.47,-1.47 2.99,1.03 4.29,-2.07 4.2,-4.32 -6.34,-2.47 -13.43,-4.02 -20.14,-2.26 -2.48,0.62 -4.87,2.76 -4.56,5.51 -0.07,5.24 4.53,9.06 9.15,10.53 6.83,2.25 14.84,2.11 21.09,-1.71 4.94,-2.99 5.24,-9.82 3.94,-14.85 -2.39,-5 -8.49,-6.14 -13.47,-6.7 -5.32,-0.89 -11.18,0.2 -16.04,-2.56 10.02,-3.13 20.85,-2.41 30.8,-5.84 0.3,-1.66 0.49,-3.64 -1.43,-4.33 -6.43,-2.66 -13.69,-1.85 -20.38,-0.7 m 107.6,7.9 c -2.62,5.79 -4.89,11.9 -5.48,18.27 -0.46,2.79 1.54,5.17 1.56,7.87 -3.69,10.3 -7.63,21.06 -6.74,32.17 0.16,3.91 3.35,7.27 7.41,6.76 1.63,-10.97 4.76,-21.64 8,-32.22 5.77,-0.53 11.72,-2.08 16.19,-5.96 7.26,-5.92 10.81,-16.04 8.79,-25.18 -0.54,-2.62 -2.06,-5.17 -4.49,-6.41 -2.5,-0.9 -5.22,0.17 -7.26,1.65 -7.27,5.43 -12.06,13.31 -17.64,20.31 -1.36,-9.72 8.94,-16.46 7.83,-26.15 -4.34,0.92 -6.29,5.35 -8.17,8.89 m 43.75,-5.19 c -3.73,1.74 -7.8,4.89 -7.49,9.46 -0.21,2.78 2.53,4.5 4.91,5.06 7.22,1.74 14.93,0.35 22.01,2.83 2.07,0.59 3.28,2.48 4.49,4.11 -1.42,2.17 -3.73,3.38 -5.98,4.49 -0.84,-0.47 -1.66,-0.94 -2.48,-1.41 2.86,0.74 4.21,-2.11 3.85,-4.39 -5.97,-2.23 -12.53,-3.68 -18.89,-2.45 -2.44,0.42 -5.1,1.8 -5.6,4.45 -0.65,4.26 2.02,8.44 5.72,10.39 6.35,3.44 14.19,3.78 20.98,1.47 3.31,-1.14 6.61,-3.43 7.41,-7.05 1.09,-4.33 1.35,-10.17 -2.87,-12.93 -4.88,-3.23 -11.01,-3.3 -16.64,-3.73 -3.36,-0.37 -7.08,-0.04 -9.95,-2.18 9.15,-2.96 18.99,-2.33 28.23,-4.89 1.24,-0.27 2.91,-1.06 2.65,-2.64 -0.83,-2.8 -4.06,-3.63 -6.62,-3.99 -8,-1.02 -16.34,0.17 -23.73,3.4 M 559.2,115.37 c -0.85,0.7 -0.94,3.19 0.49,3.1 0.83,-0.7 0.94,-3.21 -0.49,-3.1 m -31.7,0.82 c -0.05,4.01 0.31,8.02 0.3,12.04 4.41,0.61 8.89,0.57 13.31,-0.04 -2.05,-0.97 -4.48,-1.57 -5.75,-3.61 -1.73,-1.94 -1.57,-4.66 -1.48,-7.07 -2.13,-0.44 -4.26,-0.89 -6.38,-1.32 z"
       id="path32"
       style="fill:#000000" />
    <path
       d="m 582.79,83.38 c -0.38,-5.5 5.15,-8.74 9.54,-10.6 -3.27,3.46 -6.19,7.23 -9.54,10.6 z"
       id="path34"
       style="fill:#000000" />
    <path
       d="m 601.13,75.2 c 2.21,-1.35 5.09,-2.07 7.51,-0.79 1.95,2.47 0.34,5.78 -1.93,7.37 -4.69,3.45 -10.66,4.93 -16.42,4.93 2.83,-4.47 6.28,-8.72 10.84,-11.51 z"
       id="path36"
       style="fill:#000000" />
    <path
       d="m 856.21,137.86 c 26.77,-17.63 57.82,-29.33 89.94,-31.4 16.83,12.13 33.5,24.48 50.28,36.67 -1.43,8.01 -2.79,16.03 -4.22,24.04 8.11,-2.18 15.65,-6.72 23.79,-8.39 12.83,5.47 25.36,11.65 38.13,17.27 10.96,24.48 12.65,51.92 12.12,78.38 6.15,0.11 12.3,0.44 18.46,0.43 0.81,-12.44 2.38,-24.81 3.39,-37.23 37.38,1.85 74.75,3.92 112.12,5.92 0.09,-11.15 -0.14,-22.28 -0.22,-33.43 45.01,-6.67 90.09,-12.9 135.12,-19.43 6.85,-0.85 13.64,-2.19 20.52,-2.83 -10.96,46.59 -22.16,93.11 -33.2,139.67 -9.28,38.56 -18.24,77.2 -27.72,115.71 11.01,15.53 11.44,36.61 4.38,53.85 -3.48,8.38 -8.77,16.57 -16.83,21.16 -5.36,3.52 -12.01,3.33 -18.11,4.23 -5.41,0.47 -10.62,2.05 -15.97,2.76 -56.25,6.73 -112.47,13.68 -168.74,20.26 -8.66,11.23 -22.3,18.45 -36.44,19.39 -9.33,0.56 -18.65,-3.09 -25.51,-9.35 -11.81,-10.73 -18.47,-26.81 -18.18,-42.71 -5.32,-2.81 -10.81,-5.3 -16.36,-7.61 -3.69,7.86 -7.39,15.73 -11.23,23.52 -4.09,8.21 -8.98,16.69 -16.82,21.78 -22.97,5.38 -45.92,10.92 -68.95,16.08 -3.84,-6.34 -7.77,-12.61 -11.84,-18.79 -16.37,6.05 -32.7,12.2 -49.07,18.25 -1.68,0.52 -3.29,1.56 -5.08,1.44 -15.9,-6.4 -27.85,-19.79 -36.22,-34.38 -4.26,-7.69 -8.51,-15.63 -10.48,-24.25 1.69,-9.76 4.21,-19.39 5.58,-29.21 -38.27,-3.12 -76.59,-5.67 -114.88,-8.46 1.56,-8.49 3.35,-16.95 4.55,-25.49 -7.04,-0.12 -14.07,-0.56 -21.1,-0.47 -1.18,5.67 -2.02,11.4 -3.14,17.09 -31.39,-1.47 -62.78,-2.73 -94.17,-3.98 1.75,-9.47 4.11,-18.82 6.24,-28.21 -3.45,0.63 -6.45,2.65 -9.87,3.44 -16.36,5.09 -34.71,-0.87 -46.74,-12.6 -5.25,16.86 -13.82,32.89 -26.17,45.62 -8.33,8.12 -18.26,14.86 -29.48,18.2 -15.46,4.31 -32.11,4.86 -47.67,0.71 -6.47,-1.65 -12.53,-4.52 -18.52,-7.38 1.57,9.37 4.71,18.43 6.13,27.83 -46.66,20.7 -93.26,41.56 -139.79,62.55 -9.52,-77.91 -18.31,-155.91 -27.89,-233.82 -25.97,8.98 -52.04,17.65 -78.09,26.42 -14,-54.62 -27.74,-109.32 -41.59,-163.99 -1.24,-4.42 -2.33,-8.89 -3.21,-13.4 79.84,4.83 159.66,9.91 239.5,14.8 3.85,16.09 7.45,32.24 11.47,48.29 14.57,-16.93 35.41,-28.24 57.47,-31.54 15.18,-1.82 30.41,3.38 42.75,12.04 20.72,14.4 34.82,36.25 45.01,58.93 9.41,-12.32 22.36,-22.09 37.28,-26.6 13.71,-4.3 29.42,-4.78 42.41,2.03 12.99,7.13 23.13,19.15 28.68,32.8 12.09,-0.13 24.18,-1.17 36.24,-2.07 2.01,-21.25 4.03,-42.5 6.11,-63.75 44.57,-6.64 89.06,-13.82 133.61,-20.59 25.06,-4.01 50.19,-7.68 75.24,-11.78 2.24,-12.82 4.77,-25.59 6.98,-38.42 m 94.02,-15.98 c -0.72,4.85 -1.25,9.72 -1.71,14.59 3.61,2.55 7.68,4.35 11.5,6.57 9.11,4.82 17.98,10.09 27.19,14.72 0.65,-2.97 1.26,-5.95 1.92,-8.92 -12.94,-9.03 -25.96,-17.93 -38.9,-26.96 m -73.79,34.72 c -1.96,11.33 -3.59,22.75 -5.84,34.02 -7.08,4.65 -14.35,9.03 -21.71,13.22 -0.33,2.28 -0.65,4.57 -0.95,6.86 -1.61,10.45 -3.07,20.92 -4.64,31.38 -0.31,2.11 -0.77,4.21 -0.83,6.36 l -0.17,-0.53 c -1.16,10.08 -2.95,20.07 -4.24,30.13 -0.73,4.33 -1.37,8.68 -1.97,13.03 -12.52,-0.98 -25.03,-2.54 -37.59,-2.82 0.64,6 -0.09,12.01 -0.79,17.97 7.64,3.89 15.41,7.52 23.08,11.36 -4.69,10.18 -7.71,21.01 -10.18,31.91 -0.48,2.13 -0.94,4.26 -1.41,6.4 -6.08,1.06 -12.18,2.04 -18.27,3.05 -1.51,7 -2.97,14.01 -3.68,21.14 -0.53,4.96 -0.92,9.93 -0.75,14.92 -0.16,7.73 0.59,15.44 1.43,23.11 5.77,1.8 11.4,4 17.11,5.99 1.13,8.31 3.07,16.49 4.12,24.82 -2.56,5.25 -4.02,11.22 -5.98,16.81 l -0.13,0.01 c -1.14,4.12 -2.72,8.09 -3.95,12.19 -0.73,1.4 0.24,2.84 0.77,4.13 1.73,3.61 3.51,7.21 5.36,10.77 1.97,3.52 4.1,7.01 6.92,9.93 3.43,3.49 7.8,5.8 11.96,8.3 7.7,-9.84 15.17,-19.88 23.22,-29.44 2.22,0.65 4.53,0.26 6.78,-0.1 4.62,-0.42 9.01,-1.97 13.44,-3.22 9.56,9.31 19.17,18.57 28.65,27.96 9.06,-3.4 16.55,-9.9 23.01,-16.96 7.75,-8.88 14,-19.13 18.08,-30.21 -0.51,-1.08 -1.06,-2.13 -1.64,-3.15 l -0.73,-0.18 0.36,-0.51 c -3.14,-8.8 -7.6,-17.21 -10.78,-26.04 3.01,-4.32 5.09,-9.19 7.3,-13.94 1.04,-2.23 2.03,-4.49 3.26,-6.62 3.22,0.66 6.28,1.98 9.41,3.03 6.65,2.21 13.24,4.6 19.9,6.77 3.91,-4.35 6.73,-9.56 9.05,-14.9 l 0.19,-0.05 c 9.07,-21.2 15.65,-43.44 19.96,-66.08 0.56,-3.87 1.12,-7.75 1.21,-11.67 -1.93,-0.83 -3.76,-1.9 -5.77,-2.53 -5.49,-2.78 -11.1,-5.33 -16.67,-7.95 0.55,-4.09 1.44,-8.13 1.77,-12.25 0.7,-7.79 0.81,-15.63 0.33,-23.44 10.13,-6.6 20.09,-13.46 30.22,-20.05 2.11,-9.28 2.55,-18.81 2.36,-28.29 -0.46,-8.58 -2.08,-17.04 -4.47,-25.29 l -0.23,0.05 c -0.72,-2.47 -1.48,-4.95 -2.65,-7.24 -1.14,-3.01 -2.73,-5.82 -4.25,-8.64 -12.15,4.14 -24.19,8.59 -36.36,12.68 -5.86,-8.54 -15.34,-13.68 -25.26,-15.99 0.13,-4.01 0.05,-8.03 0,-12.04 0.36,-11.25 0.6,-22.5 0.74,-33.75 -19.94,2.41 -39.78,7.21 -58.1,15.58 m 70.83,-7.95 c -0.96,9.05 -2.01,18.08 -2.8,27.15 3.49,1.52 6.92,3.16 10.48,4.52 10.06,-3.94 20.12,-7.94 30.24,-11.74 -12.58,-6.75 -25.29,-13.27 -37.92,-19.93 m 74.3,20.68 c 1.11,5.02 2.3,10.03 2.99,15.14 9.89,4.32 19.92,8.31 29.88,12.48 -1.48,-5.24 -2.93,-10.72 -5.8,-15.34 -9,-4.14 -17.99,-8.32 -27.07,-12.28 m -357.96,53.77 -0.12,-0.09 c -0.28,16.74 0.28,33.47 0.17,50.21 14.73,0.29 29.42,1.72 44.14,2.24 -0.29,4.56 -1.06,9.07 -1.61,13.61 -5.98,46.14 -11.74,92.32 -17.88,138.44 25.36,3.59 50.87,6.23 76.2,10.05 0,-54.02 0.35,-108.03 0.33,-162.05 17.12,0.67 34.27,1.26 51.4,1.54 l 0.16,0.23 c 3.32,-26.88 7.32,-53.69 10.44,-80.6 -54.4,8.87 -108.86,17.4 -163.23,26.42 M 130.28,197.35 c 0,0.42 -0.01,1.27 -0.01,1.69 l 0.14,0.05 c 0.33,1.97 0.73,3.94 1.23,5.87 8.12,32.06 16.34,64.09 24.46,96.14 0.41,1.76 0.65,3.57 0.88,5.37 1.34,-0.15 2.67,-0.37 3.97,-0.72 21.65,-6.03 43.37,-11.75 65.02,-17.77 1.5,-0.4 3.03,-0.66 4.56,-0.93 10.78,71.62 21.41,143.26 32.07,214.9 4.24,-0.74 8.14,-2.6 12.22,-3.88 29.36,-9.95 58.55,-20.39 87.97,-30.13 C 356.89,448 350,428.35 343.78,408.5 328.27,361.22 313.32,313.75 297.57,266.56 l 1.48,-0.54 c 12.73,-3.84 25.66,-7.18 38.15,-11.69 l 0.86,0.55 c -4.26,-18.96 -9.42,-37.71 -13.78,-56.65 -12.75,-0.19 -25.5,0.31 -38.24,-0.33 -51.92,0.01 -103.84,-0.37 -155.76,-0.55 m 1096.74,15.07 0.62,0.36 c -0.08,21.92 0.84,43.81 1.04,65.73 -2.78,-5.72 -5.63,-11.41 -8.51,-17.08 -16.68,-0.32 -33.35,-0.76 -50.03,-0.76 l -0.51,-0.51 c -2.5,54.59 -5.11,109.16 -7.34,163.76 18.23,-0.42 36.45,-1.43 54.7,-1.49 0.89,-12.1 1.9,-24.18 2.85,-36.27 4.09,7.91 8.84,15.47 12.99,23.35 0.71,1.62 2.78,0.58 4.15,0.79 13.22,0.21 26.46,-0.25 39.68,0.06 13.72,-68.97 27.28,-137.97 40.92,-206.96 -30.18,3.02 -60.39,5.84 -90.56,9.02 m -199.54,-8.81 c 1.48,14.77 2.3,29.71 0.58,44.5 10.09,1.82 20.22,3.4 30.31,5.2 1.33,-13.86 0.99,-27.87 -0.9,-41.67 -10,-2.65 -19.99,-5.39 -29.99,-8.03 m -627.02,22.04 c -12.18,4.3 -22.5,13.67 -28.21,25.21 -0.05,-0.25 -0.15,-0.75 -0.21,-1 -11.81,16.86 -15.87,37.87 -16.94,58.1 -0.89,26.51 4.34,53.29 15.41,77.42 7.84,16.39 18.51,32.1 33.74,42.44 9.08,6.39 20.5,10.02 31.63,8.46 10.7,-1.72 20.88,-7.8 26.95,-16.82 4.6,-5.72 9.89,-11.42 12.64,-18.41 0.62,-0.6 0.9,-1.46 1.39,-2.15 1.52,-3.71 3.48,-7.25 4.39,-11.18 3.96,-10.77 6.58,-22.17 6.75,-33.69 0.34,-23.4 -3.42,-46.9 -11.37,-68.92 -6.91,-19.01 -18.03,-36.99 -34.17,-49.51 -11.51,-9.17 -27.52,-15.15 -42,-9.95 m 698.35,32.2 0.74,0.61 -0.79,-0.61 c -2,17.37 -4.11,34.73 -6.17,52.08 -3.92,-7.49 -7.47,-15.17 -11.42,-22.65 l 0.14,1.53 c -1.9,2.02 -2.42,4.83 -3.48,7.3 -1.79,4.95 -4.21,9.67 -5.67,14.73 -2.6,-10.54 -5.5,-21.01 -8.05,-31.56 -17.47,0.42 -34.95,0.52 -52.41,1.36 -0.26,-0.19 -0.79,-0.58 -1.05,-0.78 1.98,17.4 4.78,34.72 7.05,52.09 4.31,30.49 8.56,60.98 12.79,91.48 13.49,0.05 26.96,0.52 40.44,0.71 l -0.17,-0.23 c 4.6,-9.51 9.22,-19.01 13.71,-28.57 4.24,12.94 9.45,25.58 14,38.44 12.89,0.03 25.78,-0.59 38.67,-0.56 l -0.74,-1.02 0.67,0.89 c 7.55,-59.47 15.31,-118.92 22.84,-178.4 -20.36,1.13 -40.73,2.07 -61.1,3.16 m -571.66,14.48 -0.77,0.1 0.2,1.14 -1.22,0.11 c 0.02,0.34 0.04,1.03 0.06,1.37 -2.13,1.17 -3.22,3.51 -4.07,5.67 l -1.12,-0.22 c 0.13,0.5 0.39,1.51 0.52,2.01 l -1.51,-0.01 c 0.1,0.52 0.31,1.57 0.42,2.09 l -1.38,-0.23 c 0.04,0.38 0.14,1.13 0.18,1.51 -0.36,0.27 -1.1,0.81 -1.46,1.08 -5.11,9.92 -7.82,20.97 -8.92,32.04 -1.32,16.53 1.19,34.11 10.84,47.98 5.6,8.22 14.84,14.62 25.07,14.49 7.72,0.3 15.09,-2.93 21.11,-7.55 l -0.98,-0.37 1.14,0.07 c 2.02,-1.97 4.29,-3.76 5.77,-6.21 0.86,-0.1 1.44,-0.6 1.74,-1.49 3.54,-3.93 6.89,-8.09 9.36,-12.79 9.3,-18.31 12.5,-39.82 8.22,-59.96 -2.84,-13.02 -9.31,-26.35 -21.23,-33.26 -5.3,-3.53 -11.97,-3.87 -18.1,-3.15 -9.65,1.61 -18.29,7.65 -23.87,15.58 m 105.37,22.35 c 0.9,7.34 1.21,14.76 2.49,22.05 -10.53,-0.91 -21,-2.44 -31.54,-3.3 0.02,3.41 0.08,6.83 -0.1,10.24 -0.97,18.2 -6.06,36.05 -14.41,52.21 -3.69,6.18 -7.86,12.04 -12.32,17.68 -1.42,7.63 -1.94,15.42 -3.16,23.09 13.15,0.87 26.34,0.7 39.49,1.52 6.08,0.12 12.15,0.51 18.23,0.4 0.38,-0.01 0.77,0 1.17,0.01 0.05,-9.64 1.07,-19.33 0.69,-28.93 2.94,5.5 7.03,10.31 9.9,15.86 11.79,1.4 23.73,0.95 35.57,1.71 -0.11,-0.65 -0.21,-1.3 -0.3,-1.94 2.69,-38.32 5.03,-76.69 7.49,-115.04 -17.74,1.51 -35.48,2.88 -53.2,4.44 m 348.87,129.5 c 7.75,3.92 15.56,7.7 23.26,11.7 6.88,-12.35 10.04,-26.34 12.72,-40.1 -6.22,-3.63 -12.67,-6.86 -18.78,-10.67 -4.61,13.42 -8.11,27.8 -17.2,39.07 m -42.55,13.4 c 2.48,7.71 6.21,14.95 9.25,22.45 10.69,4.81 21.4,9.55 32.12,14.31 -0.01,-5.61 -0.33,-11.21 -0.5,-16.82 -13.64,-6.62 -27.27,-13.24 -40.87,-19.94 m 306.97,6.07 c -0.62,14.45 -1.61,28.88 -2.39,43.32 8.75,-0.51 17.43,-1.8 26.17,-2.52 0.65,-2.69 1.33,-5.38 1.98,-8.07 -4.69,0.44 -9.37,1.01 -14.06,1.4 0.25,-2.91 0.55,-5.81 0.84,-8.72 3.7,-0.31 7.41,-0.67 11.14,-0.85 1,-2.75 1.8,-5.56 2.6,-8.36 -4.34,0.32 -8.67,0.72 -13,1.11 0.29,-3.15 0.59,-6.29 0.94,-9.42 4.87,-0.41 9.74,-0.88 14.63,-1.09 0.97,-3.28 1.77,-6.59 2.43,-9.94 -10.42,1.16 -20.87,1.94 -31.28,3.14 m -197.41,1.01 c -5.26,1.18 -10.03,4.08 -13.82,7.86 -9.28,8.89 -14,21.82 -14.26,34.53 -0.02,8.97 2.25,18.46 8.51,25.19 3.8,4.31 9.46,6.95 15.23,6.94 7.11,0.12 13.73,-3.51 18.87,-8.19 11.38,-11.35 16.26,-28.51 13.31,-44.22 -1.52,-7.49 -5.27,-14.95 -11.81,-19.24 -4.63,-3.18 -10.59,-3.97 -16.03,-2.87 m 175.52,1.05 c -0.65,8.58 -0.4,17.22 -1.33,25.78 -1.57,-7.74 -3.57,-15.39 -5.22,-23.11 -7.08,0.83 -14.19,1.4 -21.28,2.01 -0.2,13.69 0.31,27.37 0.2,41.05 4.02,-0.4 8.05,-0.79 12.09,-1.06 0.89,-8.17 1.57,-16.36 2.18,-24.54 1.94,8.16 4.05,16.28 6.08,24.43 5.55,-0.91 11.19,-1.27 16.7,-2.44 1.18,-14.49 2.55,-28.96 3.97,-43.42 -4.47,0.41 -8.98,0.53 -13.39,1.3 m -53.15,4.54 c -0.49,14.43 -0.86,28.88 -1.05,43.32 4.37,-0.29 8.73,-0.78 13.11,-1.06 1.72,-14.59 3.02,-29.22 4.51,-43.83 -5.53,0.53 -11.06,0.95 -16.57,1.57 m -32.89,2.93 c -0.49,14.44 -1.18,28.88 -1.69,43.32 8.77,-0.63 17.51,-1.66 26.29,-2.31 0.26,-2.58 0.41,-5.17 0.51,-7.76 -4.18,0.25 -8.36,0.37 -12.53,0.65 1.14,-11.85 2.64,-23.66 3.87,-35.49 -5.49,0.45 -10.99,0.87 -16.45,1.59 m -23.61,3.09 c -0.55,8.59 -0.61,17.2 -1.18,25.79 -1.91,-7.55 -3.59,-15.15 -5.34,-22.73 -7.19,0.54 -14.36,1.21 -21.52,1.95 0.52,13.67 0.02,27.35 0.54,41.01 4,-0.51 8.01,-0.87 12.05,-1.11 0.77,-7.78 1.25,-15.58 2.14,-23.34 2.19,7.64 4.08,15.38 5.97,23.11 5.58,-0.58 11.14,-1.38 16.7,-2.17 1.24,-14.53 2.68,-29.03 3.98,-43.55 -4.46,0.26 -8.89,0.82 -13.34,1.04 m -262.94,39.65 c -4.24,8.76 -9.21,17.16 -13.34,25.97 10.36,-1.87 20.59,-4.37 30.95,-6.27 0.42,-5.08 0.55,-10.18 0.75,-15.26 -6.17,-1.28 -12.19,-3.18 -18.36,-4.44 z"
       id="path38"
       style="fill:#000000" />
    <path
       d="m 491.19,113.23 c 6.45,-2.44 13.39,-3.1 20.18,-3.9 -0.07,7.17 -0.75,14.32 -0.86,21.49 -5.49,-2.32 -10.71,-5.28 -15.6,-8.68 -2.21,-1.78 -4.9,-3.48 -5.78,-6.33 0.14,-1.2 0.8,-2.31 2.06,-2.58 m 9.96,4.74 c 0.03,2.87 5.26,1.71 2.75,-0.67 -1.16,-0.5 -2.07,-0.27 -2.75,0.67 z"
       id="path40"
       style="fill:#000000" />
    <path
       d="m 767.11,127.13 c 1.01,-1.2 2.26,-1.7 3.75,-1.5 4.34,0.63 8.46,2.35 12.87,2.65 0.77,0.56 1.54,1.12 2.33,1.68 -5.32,0.69 -10.97,2.02 -16.16,-0.02 -1.44,-0.33 -2.05,-1.72 -2.79,-2.81 z"
       id="path42"
       style="fill:#000000" />
    <path
       d="m 397.46,142.67 c 15.05,-2.23 30.37,2.73 42.97,10.81 13.25,8.67 24.44,20.87 30.74,35.5 -2.8,2.25 -5.69,4.37 -8.53,6.57 -11.01,-11.09 -25.49,-18.54 -40.73,-21.79 -14.81,-3.15 -30.88,-1.44 -44.18,6 -7.64,4.07 -14.06,10.04 -19.71,16.53 -2.09,-1.16 -4.18,-2.31 -6.29,-3.41 3.07,-12.91 8.7,-25.57 17.81,-35.38 7.24,-7.92 17.22,-13.47 27.92,-14.83 z"
       id="path44"
       style="fill:#000000" />
    <path
       d="m 535.76,200.72 c 9.64,-3.1 20.43,-1.64 29.18,3.33 9.35,5.3 16.48,13.79 21.74,23.03 -2.81,1.12 -5.52,3.89 -8.57,3.6 -7.5,-5.44 -15.89,-10.02 -25.1,-11.67 -12,-2.35 -24.78,1.63 -33.74,9.83 -2.68,-1.04 -5.26,-2.3 -7.8,-3.63 3.66,-11.34 12.88,-20.87 24.29,-24.49 z"
       id="path46"
       style="fill:#000000" />
    <path
       d="m 867.89,232.2 c 7.74,-12.76 21.01,-22.68 36.11,-24.21 9.96,-1.17 20.17,2.37 27.53,9.12 2.15,2.06 4.12,4.3 5.89,6.71 4.97,7.18 8.08,15.49 9.97,23.98 3.16,14.42 3.1,29.32 2.06,43.97 -0.92,0.48 -1.83,0.97 -2.72,1.46 -1.1,-14.64 -5.73,-28.99 -13.34,-41.54 -5.23,-8.49 -12.02,-16.2 -20.61,-21.4 -3.83,-2.09 -7.92,-3.85 -12.27,-4.41 -9.31,-1.61 -18.96,1.33 -26.46,6.88 -1.61,1.08 -3.22,2.17 -4.83,3.23 l -0.38,-1.03 c -0.33,-0.92 -0.65,-1.84 -0.95,-2.76 z"
       id="path48"
       style="fill:#000000" />
    <path
       d="m 883.08,266.53 c 3.72,-1.96 7.8,-3 11.94,-3.59 7.56,-0.05 14.99,3.4 19.71,9.32 8.09,9.96 10.8,23.11 11.44,35.63 0.29,11.47 -0.83,22.97 -3.86,34.05 -1.57,5.88 -3.6,11.62 -6.05,17.18 -5.36,11.76 -12.75,23.26 -23.91,30.24 -7.61,4.86 -17.98,5.87 -25.91,1.22 -6.08,-3.42 -10.26,-9.35 -13.07,-15.59 -1.65,-3.92 -3,-7.97 -3.87,-12.13 -1.76,-7.86 -1.98,-15.95 -1.68,-23.96 1.09,-18.33 6.11,-36.64 15.69,-52.38 4.96,-7.96 11.25,-15.43 19.57,-19.99 m 26.17,24.65 c -5.52,7.05 -9.43,15.25 -12.49,23.62 -6.14,18.05 -8.97,37.97 -3.99,56.64 0.2,0.03 0.59,0.09 0.78,0.11 8.39,-9.82 13.63,-22 16.78,-34.44 3.64,-14.96 4.75,-31.03 0.18,-45.91 -0.31,-0.01 -0.95,-0.01 -1.26,-0.02 M 861,306.46 c 9.35,5.08 18.45,10.64 27.96,15.44 0.49,-1.65 1.02,-3.28 1.56,-4.92 -8.18,-6.73 -16.82,-12.89 -24.97,-19.65 -1.95,2.81 -3.26,5.98 -4.55,9.13 m -7.3,45.62 c 10.05,-1.03 20.11,-2 30.17,-2.85 0.48,-6.55 1.58,-13.03 2.78,-19.47 l -0.28,-0.63 c -9.55,-4.44 -19.25,-8.57 -28.84,-12.93 -2.88,11.67 -5.79,23.82 -3.83,35.88 z"
       id="path50"
       style="fill:#000000" />
    <path
       d="m 426.9,284.25 c 4.87,-4.9 12.43,-6.75 18.98,-4.49 8.93,2.95 15.36,10.54 20.06,18.36 9.23,16.2 12.84,35.56 10.18,54 -1.6,9.83 -5.25,20.19 -13.55,26.34 -6.18,4.53 -14.9,4.25 -21.28,0.27 -10.18,-6.08 -16.5,-16.82 -20.66,-27.61 -5.14,-13.65 -6.91,-28.64 -4.7,-43.07 8.11,-1 16.56,0.25 23.63,4.49 6.41,3.73 11.54,9.33 15.43,15.6 -0.78,-14.06 -6.38,-28.48 -17.5,-37.55 -3.14,-2.72 -6.85,-4.6 -10.59,-6.34 z"
       id="path52"
       style="fill:#000000" />
    <path
       d="m 554.92,291.47 c 4.73,-2.29 10.61,-2.46 15.11,0.48 6.34,4.11 9.68,11.44 11.21,18.61 1.98,11.03 0.56,23.09 -5.78,32.54 -3.18,4.55 -7.79,8.75 -13.57,9.26 -6.67,0.85 -12.82,-3.6 -16.06,-9.14 -6.84,-11.38 -6.72,-25.87 -2.1,-38.04 9.9,0.39 18.67,6.64 24.06,14.68 0.29,-6.99 -0.4,-14.39 -4.46,-20.33 -2.13,-3.31 -5.3,-5.73 -8.41,-8.06 z"
       id="path54"
       style="fill:#000000" />
    <path
       d="m 823.93,372.02 c 1.15,-0.94 2.36,-1.81 3.62,-2.62 0.75,4.56 1.6,9.12 2.85,13.58 2.76,10.31 6.99,20.45 13.83,28.75 5.87,7.29 14.22,12.8 23.52,14.39 10.78,1.98 21.92,-1.49 30.95,-7.36 13.34,-8.4 23,-21.41 30.46,-35.07 0.73,0.24 2.21,0.71 2.94,0.95 -3.12,12.17 -8.48,23.75 -15.3,34.28 -4.92,7.1 -10.72,13.65 -17.59,18.92 -11.85,9.06 -27.1,14.5 -42.1,12.32 4.63,4.8 10.58,8.35 17.18,9.56 6.07,1.12 12.31,0.36 18.25,-1.15 0.27,1.11 0.55,2.23 0.85,3.35 -8.57,4.81 -18.56,7.74 -28.43,6.24 -9.07,-1.18 -17.26,-6.21 -23.36,-12.89 -3.44,-3.87 -6.31,-8.21 -8.65,-12.81 -8.96,-17.88 -10.8,-38.4 -10.07,-58.13 0.24,-4.1 0.05,-8.31 1.05,-12.31 z"
       id="path56"
       style="fill:#000000" />
    <path
       d="m 1048.48,453.85 c 3.6,3.45 7.24,7.21 8.72,12.11 2.11,7.19 1.55,14.93 -0.27,22.12 -2.01,8.12 -5.27,15.96 -9.8,23.01 -4,-7.38 -6.73,-15.57 -6.46,-24.04 0.16,-11.44 2.91,-22.87 7.81,-33.2 z"
       id="path58"
       style="fill:#000000" />
  </g>
  <g
     id="#fefefeff"
     transform="matrix(0.20086954,0,0,0.20086954,2.1898178,-0.31233958)">
    <path
       d="m 579.09,77.11 c 3.2,-5.98 9.27,-10.18 15.76,-11.88 4.42,-1.25 9.69,-0.47 12.58,3.4 2.6,0.64 5.88,1.53 6.69,4.46 0.67,3.35 -0.7,6.66 -2.49,9.42 -5.38,8.09 -15.75,12.86 -25.37,10.7 -0.88,1.49 -2.01,3.95 -4.16,2.78 -1.95,-2.43 -0.92,-5.95 -2.87,-8.36 -2.19,-3.05 -1.85,-7.33 -0.14,-10.52 m 3.7,6.27 c 3.35,-3.37 6.27,-7.14 9.54,-10.6 -4.39,1.86 -9.92,5.1 -9.54,10.6 m 18.34,-8.18 c -4.56,2.79 -8.01,7.04 -10.84,11.51 5.76,0 11.73,-1.48 16.42,-4.93 2.27,-1.59 3.88,-4.9 1.93,-7.37 -2.42,-1.28 -5.3,-0.56 -7.51,0.79 z"
       id="path61"
       style="fill:#fefefe" />
    <path
       d="m 757.26,83.2 c 7.13,-1.1 10.85,8.14 8.55,13.8 -0.94,3.39 -4.58,4.98 -7.84,5.04 -0.64,-3.19 4.11,-3.89 3.83,-7.06 -0.5,-3.33 -4.61,-4.01 -6.05,-6.74 -0.36,-1.87 0.71,-3.46 1.51,-5.04 z"
       id="path63"
       style="fill:#fefefe" />
    <path
       d="m 618.1,100.83 c 6.69,-1.15 13.95,-1.96 20.38,0.7 1.92,0.69 1.73,2.67 1.43,4.33 -9.95,3.43 -20.78,2.71 -30.8,5.84 4.86,2.76 10.72,1.67 16.04,2.56 4.98,0.56 11.08,1.7 13.47,6.7 1.3,5.03 1,11.86 -3.94,14.85 -6.25,3.82 -14.26,3.96 -21.09,1.71 -4.62,-1.47 -9.22,-5.29 -9.15,-10.53 -0.31,-2.75 2.08,-4.89 4.56,-5.51 6.71,-1.76 13.8,-0.21 20.14,2.26 0.09,2.25 -1.21,5.35 -4.2,4.32 0.81,0.49 1.64,0.99 2.47,1.47 2.33,-1.05 4.76,-2.19 6.13,-4.48 -0.93,-1.52 -1.8,-3.27 -3.6,-3.88 -7.75,-3.21 -16.51,-0.99 -24.36,-3.71 -3.48,-1.07 -4.29,-5.65 -2.44,-8.46 3.08,-5.2 9.43,-6.94 14.96,-8.17 m -9.14,28.39 c 5.29,2.93 11.57,1.47 17.23,0.71 -2.8,-2.37 -6.64,-2.15 -9.96,-3.25 -2.35,-0.43 -4.77,-1.54 -7.15,-0.94 -1.81,0.37 -1.63,2.91 -0.12,3.48 z"
       id="path65"
       style="fill:#fefefe" />
    <path
       d="m 725.7,108.73 c 1.88,-3.54 3.83,-7.97 8.17,-8.89 1.11,9.69 -9.19,16.43 -7.83,26.15 5.58,-7 10.37,-14.88 17.64,-20.31 2.04,-1.48 4.76,-2.55 7.26,-1.65 2.43,1.24 3.95,3.79 4.49,6.41 2.02,9.14 -1.53,19.26 -8.79,25.18 -4.47,3.88 -10.42,5.43 -16.19,5.96 -3.24,10.58 -6.37,21.25 -8,32.22 -4.06,0.51 -7.25,-2.85 -7.41,-6.76 -0.89,-11.11 3.05,-21.87 6.74,-32.17 -0.02,-2.7 -2.02,-5.08 -1.56,-7.87 0.59,-6.37 2.86,-12.48 5.48,-18.27 m 9.86,22.49 c 6.89,-0.94 13.27,-5.92 15.07,-12.75 0.59,-2.45 0.89,-5.65 -1.55,-7.21 -5.57,5.83 -9.66,12.93 -13.52,19.96 z"
       id="path67"
       style="fill:#fefefe" />
    <path
       d="m 769.45,103.54 c 7.39,-3.23 15.73,-4.42 23.73,-3.4 2.56,0.36 5.79,1.19 6.62,3.99 0.26,1.58 -1.41,2.37 -2.65,2.64 -9.24,2.56 -19.08,1.93 -28.23,4.89 2.87,2.14 6.59,1.81 9.95,2.18 5.63,0.43 11.76,0.5 16.64,3.73 4.22,2.76 3.96,8.6 2.87,12.93 -0.8,3.62 -4.1,5.91 -7.41,7.05 -6.79,2.31 -14.63,1.97 -20.98,-1.47 -3.7,-1.95 -6.37,-6.13 -5.72,-10.39 0.5,-2.65 3.16,-4.03 5.6,-4.45 6.36,-1.23 12.92,0.22 18.89,2.45 0.36,2.28 -0.99,5.13 -3.85,4.39 0.82,0.47 1.64,0.94 2.48,1.41 2.25,-1.11 4.56,-2.32 5.98,-4.49 -1.21,-1.63 -2.42,-3.52 -4.49,-4.11 -7.08,-2.48 -14.79,-1.09 -22.01,-2.83 -2.38,-0.56 -5.12,-2.28 -4.91,-5.06 -0.31,-4.57 3.76,-7.72 7.49,-9.46 m -2.34,23.59 c 0.74,1.09 1.35,2.48 2.79,2.81 5.19,2.04 10.84,0.71 16.16,0.02 -0.79,-0.56 -1.56,-1.12 -2.33,-1.68 -4.41,-0.3 -8.53,-2.02 -12.87,-2.65 -1.49,-0.2 -2.74,0.3 -3.75,1.5 z"
       id="path69"
       style="fill:#fefefe" />
  </g>
  <g
     id="#ff5a18ff"
     transform="matrix(0.20086954,0,0,0.20086954,2.1898178,-0.31233958)">
    <path
       d="m 891.07,88.47 c 19.25,-8 40,-13.15 60.94,-12.72 22.94,-0.06 45.87,6.64 65.16,19.06 25.38,15.95 43.82,41.09 55.73,68.27 1.78,4.47 4.07,8.81 4.99,13.58 4.11,0.19 8.12,-0.89 12.14,-1.63 71.62,-13.12 143.22,-26.34 214.91,-39.12 11.35,-1.94 22.66,-4.14 34.06,-5.83 10.46,-1.46 21.66,-1.18 31.3,3.59 9.48,4.3 16.29,13.4 18.67,23.43 2.33,10.01 1.36,20.54 -1.44,30.34 -17.87,73.48 -35.25,147.07 -52.76,220.64 -0.42,1.99 -1.25,4.26 -0.05,6.17 9.12,16.6 11.08,36.42 7.95,54.91 -3.06,18.01 -11.17,35.39 -24.13,48.4 -5.53,5.69 -12.16,10.32 -19.42,13.51 -9.44,4.31 -20.03,4.28 -30.07,6.14 -74.01,10.6 -148.02,21.18 -222.03,31.78 -14.16,1.96 -28.81,1.4 -42.52,-2.87 -11.34,-3.73 -22.12,-10.27 -29.16,-20.1 -11.87,9.15 -23.92,18.18 -37.13,25.33 -26.19,14.49 -56.08,23.58 -86.23,21.84 -20.88,-1.22 -41.54,-7.63 -59.13,-19.01 -30.76,-19.75 -51.5,-52.23 -62.4,-86.62 -42.78,-3.92 -85.65,-7.03 -128.45,-10.75 -27.3,-2.17 -54.59,-4.47 -81.89,-6.68 -4.02,-0.31 -8.05,-0.94 -12.08,-0.51 -1.25,2.73 -3.49,4.77 -5.54,6.87 -9.41,9.38 -21.51,15.89 -34.38,19.05 -17.01,4.32 -35,3.89 -52.06,0.1 0.75,6.59 0.6,14.13 -4.02,19.39 -5.39,6.53 -13.49,9.71 -20.95,13.2 -42.81,20.09 -85.63,40.14 -128.44,60.23 -9.76,4.76 -20.81,8.34 -31.74,6.2 -7.95,-1.61 -14.24,-7.66 -17.79,-14.74 -3.9,-7.71 -5.61,-16.32 -6.63,-24.83 -5.17,-61.06 -11.42,-122.02 -17.04,-183.04 -14.64,4.51 -28.81,10.5 -43.39,15.22 -7.77,2.24 -16.41,1.11 -23.23,-3.28 -9.73,-6.2 -14.8,-17.24 -17.65,-28.03 C 87.7,297.44 70.21,238.93 54.01,180.05 c -3.29,-10.87 -4.92,-22.91 -0.77,-33.77 2.8,-8.1 9.61,-14.44 17.58,-17.35 9.42,-3.58 19.71,-3.24 29.56,-2.15 67.3,7.33 134.47,15.77 201.67,23.89 5.73,0.6 11.41,1.72 17.18,1.86 8.77,-13.14 20.75,-24.17 34.6,-31.78 18.28,-9.89 40.23,-11.88 60.3,-6.98 24.13,5.72 45.49,19.91 62.86,37.28 10.15,10.8 19.33,22.67 26.09,35.91 17.69,-10.39 38.37,-16.93 59.04,-14.4 20.14,2.09 38.95,13.5 50.31,30.24 0.37,-0.16 1.1,-0.46 1.47,-0.61 3.89,-9.5 11.75,-17.68 21.67,-20.8 7.6,-2.66 15.69,-3.17 23.53,-4.77 16.27,-3.02 32.61,-5.58 48.97,-8.09 0.99,5.08 4.07,10.31 9.38,11.72 3.52,0.87 8.28,1 10.54,-2.4 1.94,-4.06 2.11,-8.68 3.23,-12.99 23.95,-3.37 47.87,-6.91 71.8,-10.45 24.5,-27.54 53.85,-51.55 88.05,-65.94 m -34.86,49.39 c -2.21,12.83 -4.74,25.6 -6.98,38.42 -25.05,4.1 -50.18,7.77 -75.24,11.78 -44.55,6.77 -89.04,13.95 -133.61,20.59 -2.08,21.25 -4.1,42.5 -6.11,63.75 -12.06,0.9 -24.15,1.94 -36.24,2.07 -5.55,-13.65 -15.69,-25.67 -28.68,-32.8 -12.99,-6.81 -28.7,-6.33 -42.41,-2.03 -14.92,4.51 -27.87,14.28 -37.28,26.6 -10.19,-22.68 -24.29,-44.53 -45.01,-58.93 -12.34,-8.66 -27.57,-13.86 -42.75,-12.04 -22.06,3.3 -42.9,14.61 -57.47,31.54 -4.02,-16.05 -7.62,-32.2 -11.47,-48.29 -79.84,-4.89 -159.66,-9.97 -239.5,-14.8 0.88,4.51 1.97,8.98 3.21,13.4 13.85,54.67 27.59,109.37 41.59,163.99 26.05,-8.77 52.12,-17.44 78.09,-26.42 9.58,77.91 18.37,155.91 27.89,233.82 46.53,-20.99 93.13,-41.85 139.79,-62.55 -1.42,-9.4 -4.56,-18.46 -6.13,-27.83 5.99,2.86 12.05,5.73 18.52,7.38 15.56,4.15 32.21,3.6 47.67,-0.71 11.22,-3.34 21.15,-10.08 29.48,-18.2 12.35,-12.73 20.92,-28.76 26.17,-45.62 12.03,11.73 30.38,17.69 46.74,12.6 3.42,-0.79 6.42,-2.81 9.87,-3.44 -2.13,9.39 -4.49,18.74 -6.24,28.21 31.39,1.25 62.78,2.51 94.17,3.98 1.12,-5.69 1.96,-11.42 3.14,-17.09 7.03,-0.09 14.06,0.35 21.1,0.47 -1.2,8.54 -2.99,17 -4.55,25.49 38.29,2.79 76.61,5.34 114.88,8.46 -1.37,9.82 -3.89,19.45 -5.58,29.21 1.97,8.62 6.22,16.56 10.48,24.25 8.37,14.59 20.32,27.98 36.22,34.38 1.79,0.12 3.4,-0.92 5.08,-1.44 16.37,-6.05 32.7,-12.2 49.07,-18.25 4.07,6.18 8,12.45 11.84,18.79 23.03,-5.16 45.98,-10.7 68.95,-16.08 7.84,-5.09 12.73,-13.57 16.82,-21.78 3.84,-7.79 7.54,-15.66 11.23,-23.52 5.55,2.31 11.04,4.8 16.36,7.61 -0.29,15.9 6.37,31.98 18.18,42.71 6.86,6.26 16.18,9.91 25.51,9.35 14.14,-0.94 27.78,-8.16 36.44,-19.39 56.27,-6.58 112.49,-13.53 168.74,-20.26 5.35,-0.71 10.56,-2.29 15.97,-2.76 6.1,-0.9 12.75,-0.71 18.11,-4.23 8.06,-4.59 13.35,-12.78 16.83,-21.16 7.06,-17.24 6.63,-38.32 -4.38,-53.85 9.48,-38.51 18.44,-77.15 27.72,-115.71 11.04,-46.56 22.24,-93.08 33.2,-139.67 -6.88,0.64 -13.67,1.98 -20.52,2.83 -45.03,6.53 -90.11,12.76 -135.12,19.43 0.08,11.15 0.31,22.28 0.22,33.43 -37.37,-2 -74.74,-4.07 -112.12,-5.92 -1.01,12.42 -2.58,24.79 -3.39,37.23 -6.16,0.01 -12.31,-0.32 -18.46,-0.43 0.53,-26.46 -1.16,-53.9 -12.12,-78.38 -12.77,-5.62 -25.3,-11.8 -38.13,-17.27 -8.14,1.67 -15.68,6.21 -23.79,8.39 1.43,-8.01 2.79,-16.03 4.22,-24.04 -16.78,-12.19 -33.45,-24.54 -50.28,-36.67 -32.12,2.07 -63.17,13.77 -89.94,31.4 m -458.75,4.81 c -10.7,1.36 -20.68,6.91 -27.92,14.83 -9.11,9.81 -14.74,22.47 -17.81,35.38 2.11,1.1 4.2,2.25 6.29,3.41 5.65,-6.49 12.07,-12.46 19.71,-16.53 13.3,-7.44 29.37,-9.15 44.18,-6 15.24,3.25 29.72,10.7 40.73,21.79 2.84,-2.2 5.73,-4.32 8.53,-6.57 -6.3,-14.63 -17.49,-26.83 -30.74,-35.5 -12.6,-8.08 -27.92,-13.04 -42.97,-10.81 m 138.3,58.05 c -11.41,3.62 -20.63,13.15 -24.29,24.49 2.54,1.33 5.12,2.59 7.8,3.63 8.96,-8.2 21.74,-12.18 33.74,-9.83 9.21,1.65 17.6,6.23 25.1,11.67 3.05,0.29 5.76,-2.48 8.57,-3.6 -5.26,-9.24 -12.39,-17.73 -21.74,-23.03 -8.75,-4.97 -19.54,-6.43 -29.18,-3.33 z"
       id="path72"
       style="fill:#ff5a18" />
  </g>
  <g
     id="#191919ff"
     transform="matrix(0.20086954,0,0,0.20086954,2.1898178,-0.31233958)">
    <path
       d="m 1405.42,105.25 c 4.25,-2.76 10.77,-1.01 12.41,4.01 -0.64,0.15 -1.9,0.47 -2.53,0.62 -1.44,-3.93 -6.7,-4.68 -9.49,-1.74 0.23,1.28 -0.07,3 1.39,3.66 3.03,1.42 6.78,1.18 9.46,3.33 3.57,3.18 0.98,9.83 -3.72,10.09 -4.7,1.35 -9.6,-1.35 -11.14,-5.91 3.19,-1.85 3.63,2.62 6.18,3.28 2.09,0.85 4.31,0.18 6.4,-0.34 0.63,-1.48 1.89,-3.55 0.19,-4.82 -2.79,-1.95 -6.58,-1.58 -9.47,-3.37 -2.84,-2.1 -2.74,-6.98 0.32,-8.81 z"
       id="path75"
       style="fill:#191919" />
  </g>
  <g
     id="#1e1a1aff"
     transform="matrix(0.20086954,0,0,0.20086954,2.1898178,-0.31233958)">
    <path
       d="m 1421.79,104.24 c 1.34,0 2.71,0 4.09,-0.01 2,5.35 3.99,10.71 6.04,16.04 2.22,-5.27 3.99,-10.71 6.07,-16.04 1.32,0.01 2.66,0 4.01,-0.01 -0.03,7.02 0.07,14.05 -0.06,21.07 -0.74,-0.02 -2.21,-0.05 -2.94,-0.06 -0.16,-5.79 0.3,-11.6 -0.36,-17.36 -1.56,5.88 -3.84,11.53 -5.96,17.21 -0.45,0.05 -1.35,0.14 -1.79,0.19 -2.39,-5.79 -4.36,-11.74 -6.57,-17.59 -0.17,5.84 -0.06,11.68 -0.08,17.52 -0.62,0.04 -1.85,0.1 -2.46,0.13 -0.04,-7.03 -0.06,-14.06 0.01,-21.09 z"
       id="path78"
       style="fill:#1e1a1a" />
  </g>
  <g
     id="#010101ff"
     transform="matrix(0.20086954,0,0,0.20086954,2.1898178,-0.31233958)">
    <path
       d="m 735.56,131.22 c 3.86,-7.03 7.95,-14.13 13.52,-19.96 2.44,1.56 2.14,4.76 1.55,7.21 -1.8,6.83 -8.18,11.81 -15.07,12.75 z"
       id="path81"
       style="fill:#010101" />
    <path
       d="m 608.96,129.22 c -1.51,-0.57 -1.69,-3.11 0.12,-3.48 2.38,-0.6 4.8,0.51 7.15,0.94 3.32,1.1 7.16,0.88 9.96,3.25 -5.66,0.76 -11.94,2.22 -17.23,-0.71 z"
       id="path83"
       style="fill:#010101" />
  </g>
  <g
     id="#1c1c1cff"
     transform="matrix(0.20086954,0,0,0.20086954,2.1898178,-0.31233958)">
    <path
       d="m 559.2,115.37 c 1.43,-0.11 1.32,2.4 0.49,3.1 -1.43,0.09 -1.34,-2.4 -0.49,-3.1 z"
       id="path86"
       style="fill:#1c1c1c" />
  </g>
  <g
     id="#b4b5b8ff"
     transform="matrix(0.20086954,0,0,0.20086954,2.1898178,-0.31233958)">
    <path
       d="m 950.23,121.88 c 12.94,9.03 25.96,17.93 38.9,26.96 -0.66,2.97 -1.27,5.95 -1.92,8.92 -9.21,-4.63 -18.08,-9.9 -27.19,-14.72 -3.82,-2.22 -7.89,-4.02 -11.5,-6.57 0.46,-4.87 0.99,-9.74 1.71,-14.59 z"
       id="path89"
       style="fill:#b4b5b8" />
    <path
       d="m 861,306.46 c 1.29,-3.15 2.6,-6.32 4.55,-9.13 8.15,6.76 16.79,12.92 24.97,19.65 -0.54,1.64 -1.07,3.27 -1.56,4.92 -9.51,-4.8 -18.61,-10.36 -27.96,-15.44 z"
       id="path91"
       style="fill:#b4b5b8" />
  </g>
  <g
     id="#b4b5b9ff"
     transform="matrix(0.20086954,0,0,0.20086954,2.1898178,-0.31233958)">
    <path
       d="m 947.27,148.65 c 12.63,6.66 25.34,13.18 37.92,19.93 -10.12,3.8 -20.18,7.8 -30.24,11.74 -3.56,-1.36 -6.99,-3 -10.48,-4.52 0.79,-9.07 1.84,-18.1 2.8,-27.15 z"
       id="path94"
       style="fill:#b4b5b9" />
    <path
       d="m 1021.57,169.33 c 9.08,3.96 18.07,8.14 27.07,12.28 2.87,4.62 4.32,10.1 5.8,15.34 -9.96,-4.17 -19.99,-8.16 -29.88,-12.48 -0.69,-5.11 -1.88,-10.12 -2.99,-15.14 z"
       id="path96"
       style="fill:#b4b5b9" />
    <path
       d="m 933.15,185.86 c 0.47,-3.68 0.24,-7.4 0.65,-11.09 0.05,4.01 0.13,8.03 0,12.04 9.92,2.31 19.4,7.45 25.26,15.99 12.17,-4.09 24.21,-8.54 36.36,-12.68 1.52,2.82 3.11,5.63 4.25,8.64 -4.27,-0.02 -8.28,1.54 -12.33,2.64 -18.61,5.23 -37.15,10.68 -55.81,15.71 -7.36,-6.75 -17.57,-10.29 -27.53,-9.12 -15.1,1.53 -28.37,11.45 -36.11,24.21 0.3,0.92 0.62,1.84 0.95,2.76 -8.53,2.33 -16.99,4.9 -25.54,7.12 1.57,-10.46 3.03,-20.93 4.64,-31.38 27.25,-7.69 54.47,-15.47 81.76,-23.02 1.11,-0.57 2.99,-0.42 3.45,-1.82 z"
       id="path98"
       style="fill:#b4b5b9" />
    <path
       d="m 1027.48,203.61 c 10,2.64 19.99,5.38 29.99,8.03 1.89,13.8 2.23,27.81 0.9,41.67 -10.09,-1.8 -20.22,-3.38 -30.31,-5.2 1.72,-14.79 0.9,-29.73 -0.58,-44.5 z"
       id="path100"
       style="fill:#b4b5b9" />
    <path
       d="m 977.01,212.66 c 8.46,-2.13 16.7,-5.15 25.31,-6.66 l 0.23,-0.05 c 2.39,8.25 4.01,16.71 4.47,25.29 -19.87,5.52 -39.73,11.12 -59.63,16.56 -1.89,-8.49 -5,-16.8 -9.97,-23.98 13.15,-3.88 26.39,-7.44 39.59,-11.16 z"
       id="path102"
       style="fill:#b4b5b9" />
    <path
       d="m 912.78,230.29 c 8.59,5.2 15.38,12.91 20.61,21.4 -12.7,4.04 -25.87,6.6 -38.37,11.25 -4.14,0.59 -8.22,1.63 -11.94,3.59 -1.09,-0.05 -2.16,0.02 -3.22,0.18 -13.97,3.63 -27.72,8.17 -41.8,11.33 1.29,-10.06 3.08,-20.05 4.24,-30.13 l 0.17,0.53 c 0.13,0.39 0.38,1.17 0.51,1.56 23.26,-6.58 46.68,-12.66 69.8,-19.71 z"
       id="path104"
       style="fill:#b4b5b9" />
    <path
       d="m 926.8,316.11 c 15.9,-3.87 31.46,-9.01 47.31,-13.09 -0.33,4.12 -1.22,8.16 -1.77,12.25 5.57,2.62 11.18,5.17 16.67,7.95 -22.24,6.22 -44.38,12.8 -66.7,18.72 3.03,-11.08 4.15,-22.58 3.86,-34.05 0.19,2.74 0.42,5.48 0.63,8.22 z"
       id="path106"
       style="fill:#b4b5b9" />
    <path
       d="m 853.7,352.08 c -1.96,-12.06 0.95,-24.21 3.83,-35.88 9.59,4.36 19.29,8.49 28.84,12.93 l 0.28,0.63 c -1.2,6.44 -2.3,12.92 -2.78,19.47 -10.06,0.85 -20.12,1.82 -30.17,2.85 z"
       id="path108"
       style="fill:#b4b5b9" />
    <path
       d="m 916.26,359.12 c 25.7,-7.49 51.64,-14.1 77.31,-21.7 -4.31,22.64 -10.89,44.88 -19.96,66.08 l -0.19,0.05 c -9.67,2.62 -19.36,5.22 -28.95,8.13 -3.13,-1.05 -6.19,-2.37 -9.41,-3.03 -1.23,2.13 -2.22,4.39 -3.26,6.62 -5.06,0.97 -9.96,2.6 -15,3.65 6.82,-10.53 12.18,-22.11 15.3,-34.28 -0.73,-0.24 -2.21,-0.71 -2.94,-0.95 -7.46,13.66 -17.12,26.67 -30.46,35.07 -9.03,5.87 -20.17,9.34 -30.95,7.36 -9.3,-1.59 -17.65,-7.1 -23.52,-14.39 -6.84,-8.3 -11.07,-18.44 -13.83,-28.75 7.6,-2.24 15.26,-4.35 22.92,-6.39 0.01,-0.4 0.04,-1.2 0.05,-1.6 2.81,6.24 6.99,12.17 13.07,15.59 7.93,4.65 18.3,3.64 25.91,-1.22 11.16,-6.98 18.55,-18.48 23.91,-30.24 z"
       id="path110"
       style="fill:#b4b5b9" />
    <path
       d="m 810.61,349.49 c 12.39,-3.59 24.78,-7.14 37.21,-10.59 -0.3,8.01 -0.08,16.1 1.68,23.96 -20.85,5.38 -41.36,12.02 -62.25,17.22 0.71,-7.13 2.17,-14.14 3.68,-21.14 6.09,-1.01 12.19,-1.99 18.27,-3.05 0.47,-2.14 0.93,-4.27 1.41,-6.4 z"
       id="path112"
       style="fill:#b4b5b9" />
    <path
       d="m 816.91,386.73 c 2.09,-0.51 4.09,-1.35 5.97,-2.4 -0.73,19.73 1.11,40.25 10.07,58.13 -7.94,2.11 -15.86,4.29 -23.79,6.46 -1.05,-8.33 -2.99,-16.51 -4.12,-24.82 -5.71,-1.99 -11.34,-4.19 -17.11,-5.99 -0.84,-7.67 -1.59,-15.38 -1.43,-23.11 10.18,-2.59 20.22,-5.69 30.41,-8.27 z"
       id="path114"
       style="fill:#b4b5b9" />
    <path
       d="m 981.39,424.18 c 9.09,-11.27 12.59,-25.65 17.2,-39.07 6.11,3.81 12.56,7.04 18.78,10.67 -2.68,13.76 -5.84,27.75 -12.72,40.1 -7.7,-4 -15.51,-7.78 -23.26,-11.7 z"
       id="path116"
       style="fill:#b4b5b9" />
    <path
       d="m 924.41,431.6 c 0.02,-0.8 0.05,-1.6 0.09,-2.39 3.18,8.83 7.64,17.24 10.78,26.04 l -0.36,0.51 c -29.2,8.41 -58.5,16.5 -87.65,25.07 2.26,0.3 4.54,0.58 6.84,0.69 -2.25,0.36 -4.56,0.75 -6.78,0.1 -0.34,-0.06 -1.02,-0.2 -1.36,-0.26 -13.69,3.38 -27.22,7.48 -40.74,11.47 -1.85,-3.56 -3.63,-7.16 -5.36,-10.77 -0.53,-1.29 -1.5,-2.73 -0.77,-4.13 1.23,-4.1 2.81,-8.07 3.95,-12.19 l 0.13,-0.01 c 2.98,-0.18 5.89,-0.94 8.73,-1.85 9.84,-3.05 19.83,-5.62 29.69,-8.61 6.1,6.68 14.29,11.71 23.36,12.89 9.87,1.5 19.86,-1.43 28.43,-6.24 -0.3,-1.12 -0.58,-2.24 -0.85,-3.35 -5.94,1.51 -12.18,2.27 -18.25,1.15 -6.6,-1.21 -12.55,-4.76 -17.18,-9.56 15,2.18 30.25,-3.26 42.1,-12.32 1.7,0.12 3.43,-0.04 5.09,-0.52 6.7,-1.92 13.36,-3.98 20.11,-5.72 z"
       id="path118"
       style="fill:#b4b5b9" />
    <path
       d="m 938.84,437.58 c 13.6,6.7 27.23,13.32 40.87,19.94 0.17,5.61 0.49,11.21 0.5,16.82 -10.72,-4.76 -21.43,-9.5 -32.12,-14.31 -3.04,-7.5 -6.77,-14.74 -9.25,-22.45 z"
       id="path120"
       style="fill:#b4b5b9" />
    <path
       d="m 851.33,495.92 c 6.17,1.26 12.19,3.16 18.36,4.44 -0.2,5.08 -0.33,10.18 -0.75,15.26 -10.36,1.9 -20.59,4.4 -30.95,6.27 4.13,-8.81 9.1,-17.21 13.34,-25.97 z"
       id="path122"
       style="fill:#b4b5b9" />
  </g>
  <g
     id="#fffac2ff"
     transform="matrix(0.20086954,0,0,0.20086954,2.1898178,-0.31233958)">
    <path
       d="m 663.61,223.1 c 54.37,-9.02 108.83,-17.55 163.23,-26.42 -3.12,26.91 -7.12,53.72 -10.44,80.6 l -0.16,-0.23 c -2.89,-4.01 -6.29,-7.6 -9.44,-11.39 2.22,-16.75 4.52,-33.47 6.89,-50.2 0.33,-1.91 0.22,-3.86 -0.01,-5.77 -6.47,1.61 -13.11,2.34 -19.67,3.38 -39.88,6.36 -79.76,12.74 -119.67,18.88 -3.41,-3.15 -6.97,-6.12 -10.73,-8.85 z"
       id="path125"
       style="fill:#fffac2" />
    <path
       d="m 130.28,197.35 c 51.92,0.18 103.84,0.56 155.76,0.55 12.74,0.64 25.49,0.14 38.24,0.33 4.36,18.94 9.52,37.69 13.78,56.65 l -0.86,-0.55 c -4.92,-3.31 -10.31,-5.82 -15.47,-8.75 -2.36,-11.85 -5.79,-23.47 -8.48,-35.26 -5.72,-0.68 -11.48,-0.32 -17.23,-0.39 -31.02,-0.08 -62.05,0.37 -93.07,-0.24 -12.66,0 -25.31,0.01 -37.97,0.01 -7,-0.11 -14,-0.5 -21,-0.19 -4.69,-3.24 -8.24,-8.25 -13.57,-10.42 l -0.14,-0.05 c 0,-0.42 0.01,-1.27 0.01,-1.69 z"
       id="path127"
       style="fill:#fffac2" />
    <path
       d="m 1227.02,212.42 c 30.17,-3.18 60.38,-6 90.56,-9.02 -13.64,68.99 -27.2,137.99 -40.92,206.96 -13.22,-0.31 -26.46,0.15 -39.68,-0.06 12.86,-0.7 25.97,1.16 38.64,-1.71 -2.11,-2.95 -4.14,-5.95 -6.27,-8.88 3.82,-21.12 8.09,-42.15 12.25,-63.2 7.89,-40.24 15.55,-80.53 23.6,-120.74 -21.75,1.28 -43.37,4.18 -65.07,6.04 -4.09,-3.11 -7.92,-6.62 -12.49,-9.03 l -0.62,-0.36 z"
       id="path129"
       style="fill:#fffac2" />
    <path
       d="m 286.53,276.15 c -1.65,-6.16 -4.21,-12.04 -5.58,-18.27 6.09,2.58 11.57,6.73 18.1,8.14 l -1.48,0.54 c 15.75,47.19 30.7,94.66 46.21,141.94 6.22,19.85 13.11,39.5 19.01,59.44 -5.4,-2.72 -11.05,-4.91 -16.46,-7.61 C 326.22,399 306.52,337.53 286.53,276.15 z"
       id="path131"
       style="fill:#fffac2" />
    <path
       d="m 1170.14,260.67 c 16.68,0 33.35,0.44 50.03,0.76 2.88,5.67 5.73,11.36 8.51,17.08 4.31,12.5 7.56,25.35 12.06,37.79 -0.01,0.51 -0.03,1.53 -0.04,2.04 -8.29,-15.58 -17.43,-30.71 -25.62,-46.34 -11.25,0.02 -22.5,-0.21 -33.75,-0.44 -3.58,-3.79 -7.55,-7.17 -11.19,-10.89 z"
       id="path133"
       style="fill:#fffac2" />
    <path
       d="m 1011.7,280.64 c 17.46,-0.84 34.94,-0.94 52.41,-1.36 2.55,10.55 5.45,21.02 8.05,31.56 -1.03,11.68 -2.55,23.3 -3.49,34.98 -0.12,0.38 -0.37,1.12 -0.49,1.5 -4.57,-19.01 -8.94,-38.06 -13.16,-57.14 -10.4,0 -20.78,0.62 -31.18,0.57 -4.05,-3.37 -8.38,-6.4 -12.14,-10.11 z"
       id="path135"
       style="fill:#fffac2" />
    <path
       d="m 626.41,365.07 c 2.51,8.11 4.37,16.4 6.65,24.58 0.38,9.6 -0.64,19.29 -0.69,28.93 -0.4,-0.01 -0.79,-0.02 -1.17,-0.01 -2.28,-3.9 -5.82,-6.77 -8.43,-10.4 1.12,-14.38 2.23,-28.75 3.64,-43.1 z"
       id="path137"
       style="fill:#fffac2" />
    <path
       d="m 1070.15,395.9 c 3.96,-10.41 8.51,-20.58 12.41,-31 l 0.35,1.17 c 0.45,9.76 1.17,19.51 1.56,29.27 -4.49,9.56 -9.11,19.06 -13.71,28.57 -2.58,-3.48 -5.04,-7.04 -7.51,-10.6 1.74,-6.02 4.68,-11.58 6.9,-17.41 z"
       id="path139"
       style="fill:#fffac2" />
  </g>
  <g
     id="#ed9b4fff"
     transform="matrix(0.20086954,0,0,0.20086954,2.1898178,-0.31233958)">
    <path
       d="m 130.41,199.09 c 5.33,2.17 8.88,7.18 13.57,10.42 6.95,27.13 13.99,54.23 20.65,81.43 11.78,-2.74 23.34,-6.37 35.08,-9.28 10.62,-3.14 21.43,-5.59 32,-8.87 2.63,-0.79 5.35,-1.16 8.06,-1.55 0.42,6.87 1.83,13.62 2.69,20.44 9.71,64.73 19.34,129.48 29.06,194.21 17.3,-5.73 34.47,-11.88 51.77,-17.65 7.7,-2.57 15.22,-5.69 23.04,-7.91 5.41,2.7 11.06,4.89 16.46,7.61 -29.42,9.74 -58.61,20.18 -87.97,30.13 -4.08,1.28 -7.98,3.14 -12.22,3.88 -10.66,-71.64 -21.29,-143.28 -32.07,-214.9 -1.53,0.27 -3.06,0.53 -4.56,0.93 -21.65,6.02 -43.37,11.74 -65.02,17.77 -1.3,0.35 -2.63,0.57 -3.97,0.72 -0.23,-1.8 -0.47,-3.61 -0.88,-5.37 -8.12,-32.05 -16.34,-64.08 -24.46,-96.14 -0.5,-1.93 -0.9,-3.9 -1.23,-5.87 z"
       id="path142"
       style="fill:#ed9b4f" />
    <path
       d="m 1227.64,212.78 c 4.57,2.41 8.4,5.92 12.49,9.03 -0.12,24.4 0.55,48.8 0.91,73.2 -0.17,7.1 0.48,14.21 -0.3,21.29 -4.5,-12.44 -7.75,-25.29 -12.06,-37.79 -0.2,-21.92 -1.12,-43.81 -1.04,-65.73 z"
       id="path144"
       style="fill:#ed9b4f" />
    <path
       d="m 663.49,223.01 0.12,0.09 c 3.76,2.73 7.32,5.7 10.73,8.85 0.08,9.91 0.41,19.81 0.18,29.72 15.47,0.63 30.92,1.81 46.41,2.4 -6.36,51.48 -13.8,102.83 -19.63,154.36 17.41,1.72 34.69,4.52 52.1,6.2 3.41,4.55 7.3,8.71 11.11,12.93 -25.33,-3.82 -50.84,-6.46 -76.2,-10.05 6.14,-46.12 11.9,-92.3 17.88,-138.44 0.55,-4.54 1.32,-9.05 1.61,-13.61 -14.72,-0.52 -29.41,-1.95 -44.14,-2.24 0.11,-16.74 -0.45,-33.47 -0.17,-50.21 z"
       id="path146"
       style="fill:#ed9b4f" />
    <path
       d="m 1099.55,258.46 c 3.58,2.94 7.02,6.05 10.3,9.32 -1.97,22.72 -4.59,45.38 -6.48,68.11 -0.33,3.81 -0.95,7.6 -1.78,11.34 -3.47,-12.32 -5.77,-24.92 -9,-37.3 2.06,-17.35 4.17,-34.71 6.17,-52.08 l 0.79,0.61 z"
       id="path148"
       style="fill:#ed9b4f" />
    <path
       d="m 1162.29,423.92 c 2.23,-54.6 4.84,-109.17 7.34,-163.76 l 0.51,0.51 c 3.64,3.72 7.61,7.1 11.19,10.89 -1.23,21.8 -1.94,43.62 -3.15,65.42 -0.49,18.02 -1.9,36 -2.28,54.02 -0.38,7.41 -1.19,14.82 -0.88,22.25 10.94,-1.32 21.98,-1.04 32.98,-1.39 3.18,3.36 6.32,6.77 8.99,10.57 -18.25,0.06 -36.47,1.07 -54.7,1.49 z"
       id="path150"
       style="fill:#ed9b4f" />
    <path
       d="m 1010.65,279.86 c 0.26,0.2 0.79,0.59 1.05,0.78 3.76,3.71 8.09,6.74 12.14,10.11 0.9,10.14 2.62,20.2 4.07,30.28 2.26,16.04 4.55,32.07 6.67,48.13 1.74,14.59 4.59,29.03 5.87,43.67 7.59,0.35 15.2,0.26 22.8,0.48 2.47,3.56 4.93,7.12 7.51,10.6 l 0.17,0.23 c -13.48,-0.19 -26.95,-0.66 -40.44,-0.71 -4.23,-30.5 -8.48,-60.99 -12.79,-91.48 -2.27,-17.37 -5.07,-34.69 -7.05,-52.09 z"
       id="path152"
       style="fill:#ed9b4f" />
    <path
       d="m 1077.83,296.11 c 1.06,-2.47 1.58,-5.28 3.48,-7.3 0.96,8.02 1.12,16.1 1.83,24.14 -4.93,10.91 -9.43,22.01 -14.47,32.87 0.94,-11.68 2.46,-23.3 3.49,-34.98 1.46,-5.06 3.88,-9.78 5.67,-14.73 z"
       id="path154"
       style="fill:#ed9b4f" />
    <path
       d="m 1213.44,345.31 c 5.39,8.37 9.16,17.62 13.99,26.32 3.58,7.96 8.3,15.35 11.69,23.4 1.09,1.97 1.99,5.24 4.89,4.75 8.45,-0.06 16.89,-0.02 25.34,-0.07 2.13,2.93 4.16,5.93 6.27,8.88 -12.67,2.87 -25.78,1.01 -38.64,1.71 -1.37,-0.21 -3.44,0.83 -4.15,-0.79 -4.15,-7.88 -8.9,-15.44 -12.99,-23.35 -1.97,-13.64 -4.49,-27.2 -6.4,-40.85 z"
       id="path156"
       style="fill:#ed9b4f" />
    <path
       d="m 1082.91,366.07 c 8.38,18.9 15.46,38.35 23.95,57.2 7.19,-0.57 14.41,-0.29 21.62,-0.61 2.69,3.14 5.48,6.2 7.92,9.54 l 0.74,1.02 c -12.89,-0.03 -25.78,0.59 -38.67,0.56 -4.55,-12.86 -9.76,-25.5 -14,-38.44 -0.39,-9.76 -1.11,-19.51 -1.56,-29.27 z"
       id="path158"
       style="fill:#ed9b4f" />
    <path
       d="m 576.64,393.56 c 4.46,-5.64 8.63,-11.5 12.32,-17.68 -1.24,10.4 -3.15,20.74 -3.86,31.2 12.56,0.26 25.11,0.88 37.67,1.09 2.61,3.63 6.15,6.5 8.43,10.4 -6.08,0.11 -12.15,-0.28 -18.23,-0.4 -13.15,-0.82 -26.34,-0.65 -39.49,-1.52 1.22,-7.67 1.74,-15.46 3.16,-23.09 z"
       id="path160"
       style="fill:#ed9b4f" />
  </g>
  <g
     id="#feffffff"
     transform="matrix(0.20086954,0,0,0.20086954,2.1898178,-0.31233958)">
    <path
       d="m 987.34,201.4 c 4.05,-1.1 8.06,-2.66 12.33,-2.64 1.17,2.29 1.93,4.77 2.65,7.24 -8.61,1.51 -16.85,4.53 -25.31,6.66 -13.2,3.72 -26.44,7.28 -39.59,11.16 -1.77,-2.41 -3.74,-4.65 -5.89,-6.71 18.66,-5.03 37.2,-10.48 55.81,-15.71 z"
       id="path163"
       style="fill:#feffff" />
    <path
       d="m 874.05,232.76 c 9.08,-0.99 17.65,-4.56 26.46,-6.88 4.35,0.56 8.44,2.32 12.27,4.41 -23.12,7.05 -46.54,13.13 -69.8,19.71 -0.13,-0.39 -0.38,-1.17 -0.51,-1.56 0.06,-2.15 0.52,-4.25 0.83,-6.36 8.55,-2.22 17.01,-4.79 25.54,-7.12 l 0.38,1.03 c 1.61,-1.06 3.22,-2.15 4.83,-3.23 z"
       id="path165"
       style="fill:#feffff" />
    <path
       d="m 944.47,411.68 c 9.59,-2.91 19.28,-5.51 28.95,-8.13 -2.32,5.34 -5.14,10.55 -9.05,14.9 -6.66,-2.17 -13.25,-4.56 -19.9,-6.77 z"
       id="path167"
       style="fill:#feffff" />
  </g>
  <g
     id="#fef200ff"
     transform="matrix(0.20086954,0,0,0.20086954,2.1898178,-0.31233958)">
    <path
       d="m 143.98,209.51 c 7,-0.31 14,0.08 21,0.19 12.66,0 25.31,-0.01 37.97,-0.01 31.02,0.61 62.05,0.16 93.07,0.24 5.75,0.07 11.51,-0.29 17.23,0.39 2.69,11.79 6.12,23.41 8.48,35.26 -13.63,3.99 -27.19,8.19 -40.78,12.3 1.37,6.23 3.93,12.11 5.58,18.27 19.99,61.38 39.69,122.85 59.8,184.18 -7.82,2.22 -15.34,5.34 -23.04,7.91 -17.3,5.77 -34.47,11.92 -51.77,17.65 -9.72,-64.73 -19.35,-129.48 -29.06,-194.21 -0.86,-6.82 -2.27,-13.57 -2.69,-20.44 -2.71,0.39 -5.43,0.76 -8.06,1.55 -10.57,3.28 -21.38,5.73 -32,8.87 -11.74,2.91 -23.3,6.54 -35.08,9.28 -6.66,-27.2 -13.7,-54.3 -20.65,-81.43 z"
       id="path170"
       style="fill:#fef200" />
    <path
       d="m 794.01,213.07 c 6.56,-1.04 13.2,-1.77 19.67,-3.38 0.23,1.91 0.34,3.86 0.01,5.77 -2.37,16.73 -4.67,33.45 -6.89,50.2 -8.28,0.45 -16.54,-0.5 -24.82,-0.61 -9.31,-0.21 -18.61,-0.55 -27.9,-1.07 l 0.01,0.2 c -0.23,22.57 0.02,45.15 -0.12,67.72 -0.74,11.67 -0.28,23.37 -0.4,35.06 -0.11,19.22 0.21,38.45 -0.17,57.67 -17.41,-1.68 -34.69,-4.48 -52.1,-6.2 5.83,-51.53 13.27,-102.88 19.63,-154.36 -15.49,-0.59 -30.94,-1.77 -46.41,-2.4 0.23,-9.91 -0.1,-19.81 -0.18,-29.72 39.91,-6.14 79.79,-12.52 119.67,-18.88 z"
       id="path172"
       style="fill:#fef200" />
    <path
       d="m 1240.13,221.81 c 21.7,-1.86 43.32,-4.76 65.07,-6.04 -8.05,40.21 -15.71,80.5 -23.6,120.74 -4.16,21.05 -8.43,42.08 -12.25,63.2 -8.45,0.05 -16.89,0.01 -25.34,0.07 -2.9,0.49 -3.8,-2.78 -4.89,-4.75 -3.39,-8.05 -8.11,-15.44 -11.69,-23.4 -4.83,-8.7 -8.6,-17.95 -13.99,-26.32 -0.29,-0.53 -0.56,-1.06 -0.82,-1.58 -1.35,22.72 -3.41,45.41 -4.62,68.13 -11,0.35 -22.04,0.07 -32.98,1.39 -0.31,-7.43 0.5,-14.84 0.88,-22.25 0.38,-18.02 1.79,-36 2.28,-54.02 1.21,-21.8 1.92,-43.62 3.15,-65.42 11.25,0.23 22.5,0.46 33.75,0.44 8.19,15.63 17.33,30.76 25.62,46.34 0.01,-0.51 0.03,-1.53 0.04,-2.04 0.78,-7.08 0.13,-14.19 0.3,-21.29 -0.36,-24.4 -1.03,-48.8 -0.91,-73.2 z"
       id="path174"
       style="fill:#fef200" />
    <path
       d="m 1109.85,267.78 c 13,-0.49 25.98,-1.31 38.99,-1.76 -6.71,52.22 -13.61,104.42 -20.36,156.64 -7.21,0.32 -14.43,0.04 -21.62,0.61 -8.49,-18.85 -15.57,-38.3 -23.95,-57.2 l -0.35,-1.17 c -3.9,10.42 -8.45,20.59 -12.41,31 -2.22,5.83 -5.16,11.39 -6.9,17.41 -7.6,-0.22 -15.21,-0.13 -22.8,-0.48 -1.28,-14.64 -4.13,-29.08 -5.87,-43.67 -2.12,-16.06 -4.41,-32.09 -6.67,-48.13 -1.45,-10.08 -3.17,-20.14 -4.07,-30.28 10.4,0.05 20.78,-0.57 31.18,-0.57 4.22,19.08 8.59,38.13 13.16,57.14 0.12,-0.38 0.37,-1.12 0.49,-1.5 5.04,-10.86 9.54,-21.96 14.47,-32.87 5.98,12.53 12.52,24.79 18.63,37.27 -0.07,-1.01 -0.13,-2 -0.18,-2.99 0.83,-3.74 1.45,-7.53 1.78,-11.34 1.89,-22.73 4.51,-45.39 6.48,-68.11 z"
       id="path176"
       style="fill:#fef200" />
    <path
       d="m 642.9,304.18 c 10.38,-1.23 20.81,-1.87 31.23,-2.74 0.06,3.94 -0.1,7.88 -0.5,11.81 -1.67,27.46 -3.26,54.93 -4.92,82.39 -6.75,-0.03 -13.51,1.08 -20.24,0.22 -6.76,-10.88 -14.65,-21 -22.08,-31.41 l 0.02,0.62 c -1.41,14.35 -2.52,28.72 -3.64,43.1 -12.56,-0.21 -25.11,-0.83 -37.67,-1.09 0.71,-10.46 2.62,-20.8 3.86,-31.2 8.35,-16.16 13.44,-34.01 14.41,-52.21 8.27,0.95 16.57,1.67 24.82,2.85 4.55,9.61 9.2,19.17 13.85,28.74 -0.13,-1.1 -0.25,-2.19 -0.37,-3.27 0.78,-15.92 0.66,-31.88 1.23,-47.81 z"
       id="path178"
       style="fill:#fef200" />
    <path
       d="m 1245.81,443.65 c 10.41,-1.2 20.86,-1.98 31.28,-3.14 -0.66,3.35 -1.46,6.66 -2.43,9.94 -4.89,0.21 -9.76,0.68 -14.63,1.09 -0.35,3.13 -0.65,6.27 -0.94,9.42 4.33,-0.39 8.66,-0.79 13,-1.11 -0.8,2.8 -1.6,5.61 -2.6,8.36 -3.73,0.18 -7.44,0.54 -11.14,0.85 -0.29,2.91 -0.59,5.81 -0.84,8.72 4.69,-0.39 9.37,-0.96 14.06,-1.4 -0.65,2.69 -1.33,5.38 -1.98,8.07 -8.74,0.72 -17.42,2.01 -26.17,2.52 0.78,-14.44 1.77,-28.87 2.39,-43.32 z"
       id="path180"
       style="fill:#fef200" />
    <path
       d="m 1048.4,444.66 c 5.44,-1.1 11.4,-0.31 16.03,2.87 6.54,4.29 10.29,11.75 11.81,19.24 2.95,15.71 -1.93,32.87 -13.31,44.22 -5.14,4.68 -11.76,8.31 -18.87,8.19 -5.77,0.01 -11.43,-2.63 -15.23,-6.94 -6.26,-6.73 -8.53,-16.22 -8.51,-25.19 0.26,-12.71 4.98,-25.64 14.26,-34.53 3.79,-3.78 8.56,-6.68 13.82,-7.86 m 0.08,9.19 c -4.9,10.33 -7.65,21.76 -7.81,33.2 -0.27,8.47 2.46,16.66 6.46,24.04 4.53,-7.05 7.79,-14.89 9.8,-23.01 1.82,-7.19 2.38,-14.93 0.27,-22.12 -1.48,-4.9 -5.12,-8.66 -8.72,-12.11 z"
       id="path182"
       style="fill:#fef200" />
    <path
       d="m 1223.92,445.71 c 4.41,-0.77 8.92,-0.89 13.39,-1.3 -1.42,14.46 -2.79,28.93 -3.97,43.42 -5.51,1.17 -11.15,1.53 -16.7,2.44 -2.03,-8.15 -4.14,-16.27 -6.08,-24.43 -0.61,8.18 -1.29,16.37 -2.18,24.54 -4.04,0.27 -8.07,0.66 -12.09,1.06 0.11,-13.68 -0.4,-27.36 -0.2,-41.05 7.09,-0.61 14.2,-1.18 21.28,-2.01 1.65,7.72 3.65,15.37 5.22,23.11 0.93,-8.56 0.68,-17.2 1.33,-25.78 z"
       id="path184"
       style="fill:#fef200" />
    <path
       d="m 1170.77,450.25 c 5.51,-0.62 11.04,-1.04 16.57,-1.57 -1.49,14.61 -2.79,29.24 -4.51,43.83 -4.38,0.28 -8.74,0.77 -13.11,1.06 0.19,-14.44 0.56,-28.89 1.05,-43.32 z"
       id="path186"
       style="fill:#fef200" />
    <path
       d="m 1137.88,453.18 c 5.46,-0.72 10.96,-1.14 16.45,-1.59 -1.23,11.83 -2.73,23.64 -3.87,35.49 4.17,-0.28 8.35,-0.4 12.53,-0.65 -0.1,2.59 -0.25,5.18 -0.51,7.76 -8.78,0.65 -17.52,1.68 -26.29,2.31 0.51,-14.44 1.2,-28.88 1.69,-43.32 z"
       id="path188"
       style="fill:#fef200" />
    <path
       d="m 1114.27,456.27 c 4.45,-0.22 8.88,-0.78 13.34,-1.04 -1.3,14.52 -2.74,29.02 -3.98,43.55 -5.56,0.79 -11.12,1.59 -16.7,2.17 -1.89,-7.73 -3.78,-15.47 -5.97,-23.11 -0.89,7.76 -1.37,15.56 -2.14,23.34 -4.04,0.24 -8.05,0.6 -12.05,1.11 -0.52,-13.66 -0.02,-27.34 -0.54,-41.01 7.16,-0.74 14.33,-1.41 21.52,-1.95 1.75,7.58 3.43,15.18 5.34,22.73 0.57,-8.59 0.63,-17.2 1.18,-25.79 z"
       id="path190"
       style="fill:#fef200" />
  </g>
  <g
     id="#fbfbfbff"
     transform="matrix(0.20086954,0,0,0.20086954,2.1898178,-0.31233958)">
    <path
       d="m 400.46,225.65 c 14.48,-5.2 30.49,0.78 42,9.95 16.14,12.52 27.26,30.5 34.17,49.51 7.95,22.02 11.71,45.52 11.37,68.92 -0.17,11.52 -2.79,22.92 -6.75,33.69 -4.28,5.22 -7.16,11.66 -12.63,15.83 -4.1,3.06 -8.49,5.82 -13.28,7.66 -4.88,2 -10.25,1.39 -15.38,1.42 -5.37,0.06 -10.35,-2.21 -15.08,-4.5 -9,-4.16 -16.13,-11.15 -23.53,-17.55 -9.48,-10.03 -16.82,-21.95 -22.12,-34.66 -5.9,-16.74 -8.6,-34.38 -10.95,-51.9 -1.66,-10.74 -0.41,-21.64 -1.54,-32.42 0.2,-1.66 0.4,-3.32 0.63,-4.98 0.96,-3.71 1.94,-7.43 3.47,-10.96 0.67,-1.85 1.8,-3.77 1.2,-5.8 0.06,0.25 0.16,0.75 0.21,1 5.71,-11.54 16.03,-20.91 28.21,-25.21 m 26.44,58.6 c 3.74,1.74 7.45,3.62 10.59,6.34 11.12,9.07 16.72,23.49 17.5,37.55 -3.89,-6.27 -9.02,-11.87 -15.43,-15.6 -7.07,-4.24 -15.52,-5.49 -23.63,-4.49 -2.21,14.43 -0.44,29.42 4.7,43.07 4.16,10.79 10.48,21.53 20.66,27.61 6.38,3.98 15.1,4.26 21.28,-0.27 8.3,-6.15 11.95,-16.51 13.55,-26.34 2.66,-18.44 -0.95,-37.8 -10.18,-54 -4.7,-7.82 -11.13,-15.41 -20.06,-18.36 -6.55,-2.26 -14.11,-0.41 -18.98,4.49 z"
       id="path193"
       style="fill:#fbfbfb" />
  </g>
  <g
     id="#b6b6b6ff"
     transform="matrix(0.20086954,0,0,0.20086954,2.1898178,-0.31233958)">
    <path
       d="m 874.05,232.76 c 7.5,-5.55 17.15,-8.49 26.46,-6.88 -8.81,2.32 -17.38,5.89 -26.46,6.88 z"
       id="path196"
       style="fill:#b6b6b6" />
  </g>
  <g
     id="#ee9b50ff"
     transform="matrix(0.20086954,0,0,0.20086954,2.1898178,-0.31233958)">
    <path
       d="m 280.95,257.88 c 13.59,-4.11 27.15,-8.31 40.78,-12.3 5.16,2.93 10.55,5.44 15.47,8.75 -12.49,4.51 -25.42,7.85 -38.15,11.69 -6.53,-1.41 -12.01,-5.56 -18.1,-8.14 z"
       id="path199"
       style="fill:#ee9b50" />
    <path
       d="m 754.08,263.98 c 9.29,0.52 18.59,0.86 27.9,1.07 8.28,0.11 16.54,1.06 24.82,0.61 3.15,3.79 6.55,7.38 9.44,11.39 -17.13,-0.28 -34.28,-0.87 -51.4,-1.54 -3.31,-4.04 -7.08,-7.64 -10.75,-11.33 l -0.01,-0.2 z"
       id="path201"
       style="fill:#ee9b50" />
  </g>
  <g
     id="#7b7b7bff"
     transform="matrix(0.20086954,0,0,0.20086954,2.1898178,-0.31233958)">
    <path
       d="m 372.04,249.86 c 0.6,2.03 -0.53,3.95 -1.2,5.8 -1.53,3.53 -2.51,7.25 -3.47,10.96 -3.48,5.79 -3.62,12.76 -4.67,19.25 -2.94,20.62 -0.07,41.47 3.97,61.72 6.67,23.41 17.33,46.55 35.46,63.32 6.16,5.06 12.41,10.38 20.08,12.98 11.78,4.85 25.82,3.65 36.55,-3.23 1.2,-0.83 2.67,-0.95 4.07,-1.2 -6.07,9.02 -16.25,15.1 -26.95,16.82 -11.13,1.56 -22.55,-2.07 -31.63,-8.46 -15.23,-10.34 -25.9,-26.05 -33.74,-42.44 -11.07,-24.13 -16.3,-50.91 -15.41,-77.42 1.07,-20.23 5.13,-41.24 16.94,-58.1 z"
       id="path204"
       style="fill:#7b7b7b" />
  </g>
  <g
     id="#fffac1ff"
     transform="matrix(0.20086954,0,0,0.20086954,2.1898178,-0.31233958)">
    <path
       d="m 1098.81,257.85 c 20.37,-1.09 40.74,-2.03 61.1,-3.16 -7.53,59.48 -15.29,118.93 -22.84,178.4 l -0.67,-0.89 c -2.44,-3.34 -5.23,-6.4 -7.92,-9.54 6.75,-52.22 13.65,-104.42 20.36,-156.64 -13.01,0.45 -25.99,1.27 -38.99,1.76 -3.28,-3.27 -6.72,-6.38 -10.3,-9.32 l -0.74,-0.61 z"
       id="path207"
       style="fill:#fffac1" />
    <path
       d="m 632.52,294.68 c 17.72,-1.56 35.46,-2.93 53.2,-4.44 -2.46,38.35 -4.8,76.72 -7.49,115.04 l -0.34,1.85 c -3.15,-3.76 -6.23,-7.58 -9.18,-11.49 1.66,-27.46 3.25,-54.93 4.92,-82.39 0.4,-3.93 0.56,-7.87 0.5,-11.81 -10.42,0.87 -20.85,1.51 -31.23,2.74 -3.61,-3 -7.01,-6.25 -10.38,-9.5 z"
       id="path209"
       style="fill:#fffac1" />
  </g>
  <g
     id="#fefac0ff"
     transform="matrix(0.20086954,0,0,0.20086954,2.1898178,-0.31233958)">
    <path
       d="m 754.09,264.18 c 3.67,3.69 7.44,7.29 10.75,11.33 0.02,54.02 -0.33,108.03 -0.33,162.05 -3.81,-4.22 -7.7,-8.38 -11.11,-12.93 0.38,-19.22 0.06,-38.45 0.17,-57.67 0.12,-11.69 -0.34,-23.39 0.4,-35.06 0.14,-22.57 -0.11,-45.15 0.12,-67.72 z"
       id="path212"
       style="fill:#fefac0" />
    <path
       d="m 603.47,313.43 c 10.54,0.86 21.01,2.39 31.54,3.3 2.58,11.68 3.97,23.6 6.66,35.26 0.12,1.08 0.24,2.17 0.37,3.27 -4.65,-9.57 -9.3,-19.13 -13.85,-28.74 -8.25,-1.18 -16.55,-1.9 -24.82,-2.85 0.18,-3.41 0.12,-6.83 0.1,-10.24 z"
       id="path214"
       style="fill:#fefac0" />
  </g>
  <g
     id="#9c9c9cff"
     transform="matrix(0.20086954,0,0,0.20086954,2.1898178,-0.31233958)">
    <path
       d="m 362.7,285.87 c 1.05,-6.49 1.19,-13.46 4.67,-19.25 -0.23,1.66 -0.43,3.32 -0.63,4.98 -2.2,7.74 -2.43,15.84 -2.25,23.82 -1.65,6.33 -0.35,12.81 0.01,19.21 2.21,27.63 9.9,55.63 26.78,78.02 9.02,11.44 19.9,22.17 33.85,27.27 11.02,4.64 23.78,2.76 34.08,-2.83 3.34,-1.92 6.04,-4.74 8.33,-7.8 2.35,-3.02 4.69,-6.11 7.93,-8.24 -2.75,6.99 -8.04,12.69 -12.64,18.41 -1.4,0.25 -2.87,0.37 -4.07,1.2 -10.73,6.88 -24.77,8.08 -36.55,3.23 -7.67,-2.6 -13.92,-7.92 -20.08,-12.98 C 384,394.14 373.34,371 366.67,347.59 c -4.04,-20.25 -6.91,-41.1 -3.97,-61.72 z"
       id="path217"
       style="fill:#9c9c9c" />
  </g>
  <g
     id="#d5d5d5ff"
     transform="matrix(0.20086954,0,0,0.20086954,2.1898178,-0.31233958)">
    <path
       d="m 364.49,295.42 c -0.18,-7.98 0.05,-16.08 2.25,-23.82 1.13,10.78 -0.12,21.68 1.54,32.42 2.35,17.52 5.05,35.16 10.95,51.9 5.3,12.71 12.64,24.63 22.12,34.66 7.4,6.4 14.53,13.39 23.53,17.55 4.73,2.29 9.71,4.56 15.08,4.5 5.13,-0.03 10.5,0.58 15.38,-1.42 4.79,-1.84 9.18,-4.6 13.28,-7.66 5.47,-4.17 8.35,-10.61 12.63,-15.83 -0.91,3.93 -2.87,7.47 -4.39,11.18 -0.49,0.69 -0.77,1.55 -1.39,2.15 -3.24,2.13 -5.58,5.22 -7.93,8.24 -4.24,0.18 -6.76,4.19 -10.55,5.55 -5.73,2.07 -11.84,3.82 -18,3.16 -10.14,-0.64 -19.65,-5.27 -27.58,-11.43 -5.81,-4.08 -10.87,-9.13 -15.18,-14.75 -12.17,-14.15 -19.98,-31.64 -24.49,-49.64 -2.34,-9.55 -3.22,-19.38 -5.31,-28.99 -1.32,-5.85 -0.32,-11.96 -1.94,-17.77 z"
       id="path220"
       style="fill:#d5d5d5" />
  </g>
  <g
     id="#909090ff"
     transform="matrix(0.20086954,0,0,0.20086954,2.1898178,-0.31233958)">
    <path
       d="m 517,286.95 c 0.36,-0.27 1.1,-0.81 1.46,-1.08 0.08,0.7 0.24,2.11 0.32,2.81 -0.61,0.95 -1.2,1.91 -1.77,2.87 -4.25,5.96 -4.74,13.51 -6.14,20.47 -1.55,14.2 -1.04,29.09 4.87,42.34 2.11,6.74 6.9,12.16 11.96,16.89 8.16,7.37 20.64,9.25 30.7,4.95 1.32,-0.64 2.21,-1.85 3.31,-2.77 0.8,0.01 1.6,0.04 2.41,0.11 l 0.98,0.37 c -6.02,4.62 -13.39,7.85 -21.11,7.55 -10.23,0.13 -19.47,-6.27 -25.07,-14.49 -9.65,-13.87 -12.16,-31.45 -10.84,-47.98 1.1,-11.07 3.81,-22.12 8.92,-32.04 z"
       id="path223"
       style="fill:#909090" />
  </g>
  <g
     id="#fefac1ff"
     transform="matrix(0.20086954,0,0,0.20086954,2.1898178,-0.31233958)">
    <path
       d="m 1081.17,287.28 c 3.95,7.48 7.5,15.16 11.42,22.65 3.23,12.38 5.53,24.98 9,37.3 0.05,0.99 0.11,1.98 0.18,2.99 -6.11,-12.48 -12.65,-24.74 -18.63,-37.27 -0.71,-8.04 -0.87,-16.12 -1.83,-24.14 l -0.14,-1.53 z"
       id="path226"
       style="fill:#fefac1" />
    <path
       d="m 1212.62,343.73 c 0.26,0.52 0.53,1.05 0.82,1.58 1.91,13.65 4.43,27.21 6.4,40.85 -0.95,12.09 -1.96,24.17 -2.85,36.27 -2.67,-3.8 -5.81,-7.21 -8.99,-10.57 1.21,-22.72 3.27,-45.41 4.62,-68.13 z"
       id="path228"
       style="fill:#fefac1" />
  </g>
  <g
     id="#d9d9d9ff"
     transform="matrix(0.20086954,0,0,0.20086954,2.1898178,-0.31233958)">
    <path
       d="m 517.01,291.55 c 0.57,-0.96 1.16,-1.92 1.77,-2.87 0.25,10.18 -3.85,19.96 -3.44,30.18 -0.6,14.9 5.04,29.77 14.83,40.94 6.38,6.7 15.47,11.1 24.84,10.74 5.53,0.11 10.6,-2.45 16.02,-3.14 -1.48,2.45 -3.75,4.24 -5.77,6.21 l -1.14,-0.07 c -0.81,-0.07 -1.61,-0.1 -2.41,-0.11 -4.9,0.03 -9.76,1.55 -14.66,0.75 -3.63,-0.57 -7.29,-0.87 -10.96,-0.63 1.03,-0.26 2.07,-0.51 3.11,-0.76 -3.85,-2.48 -8.94,-3.23 -11.7,-7.18 -3.98,-4.78 -7.31,-10.02 -9.39,-15.91 -0.13,0.76 -0.37,2.27 -0.5,3.02 -1.1,-5.25 -3.23,-10.24 -3.77,-15.62 -2.05,-9.42 -1.75,-19.18 -0.2,-28.65 0.79,-5.71 2.87,-11.14 3.37,-16.9 z"
       id="path231"
       style="fill:#d9d9d9" />
  </g>
  <g
     id="#fe5d27ff"
     transform="matrix(0.20086954,0,0,0.20086954,2.1898178,-0.31233958)">
    <path
       d="m 909.25,291.18 c 0.31,0.01 0.95,0.01 1.26,0.02 4.57,14.88 3.46,30.95 -0.18,45.91 -3.15,12.44 -8.39,24.62 -16.78,34.44 -0.19,-0.02 -0.58,-0.08 -0.78,-0.11 -4.98,-18.67 -2.15,-38.59 3.99,-56.64 3.06,-8.37 6.97,-16.57 12.49,-23.62 z"
       id="path234"
       style="fill:#fe5d27" />
  </g>
  <g
     id="#b1b1b1ff"
     transform="matrix(0.20086954,0,0,0.20086954,2.1898178,-0.31233958)">
    <path
       d="m 510.87,312.02 c 1.4,-6.96 1.89,-14.51 6.14,-20.47 -0.5,5.76 -2.58,11.19 -3.37,16.9 -1.55,9.47 -1.85,19.23 0.2,28.65 0.54,5.38 2.67,10.37 3.77,15.62 0.13,-0.75 0.37,-2.26 0.5,-3.02 2.08,5.89 5.41,11.13 9.39,15.91 2.76,3.95 7.85,4.7 11.7,7.18 -1.04,0.25 -2.08,0.5 -3.11,0.76 3.67,-0.24 7.33,0.06 10.96,0.63 4.9,0.8 9.76,-0.72 14.66,-0.75 -1.1,0.92 -1.99,2.13 -3.31,2.77 -10.06,4.3 -22.54,2.42 -30.7,-4.95 -5.06,-4.73 -9.85,-10.15 -11.96,-16.89 -5.91,-13.25 -6.42,-28.14 -4.87,-42.34 z"
       id="path237"
       style="fill:#b1b1b1" />
  </g>
  <g
     id="#b9b9b9ff"
     transform="matrix(0.20086954,0,0,0.20086954,2.1898178,-0.31233958)">
    <path
       d="m 364.49,295.42 c 1.62,5.81 0.62,11.92 1.94,17.77 2.09,9.61 2.97,19.44 5.31,28.99 4.51,18 12.32,35.49 24.49,49.64 4.31,5.62 9.37,10.67 15.18,14.75 7.93,6.16 17.44,10.79 27.58,11.43 6.16,0.66 12.27,-1.09 18,-3.16 3.79,-1.36 6.31,-5.37 10.55,-5.55 -2.29,3.06 -4.99,5.88 -8.33,7.8 -10.3,5.59 -23.06,7.47 -34.08,2.83 -13.95,-5.1 -24.83,-15.83 -33.85,-27.27 -16.88,-22.39 -24.57,-50.39 -26.78,-78.02 -0.36,-6.4 -1.66,-12.88 -0.01,-19.21 z"
       id="path240"
       style="fill:#b9b9b9" />
  </g>
  <g
     id="#ef9a4eff"
     transform="matrix(0.20086954,0,0,0.20086954,2.1898178,-0.31233958)">
    <path
       d="m 632.52,294.68 c 3.37,3.25 6.77,6.5 10.38,9.5 -0.57,15.93 -0.45,31.89 -1.23,47.81 -2.69,-11.66 -4.08,-23.58 -6.66,-35.26 -1.28,-7.29 -1.59,-14.71 -2.49,-22.05 z"
       id="path243"
       style="fill:#ef9a4e" />
  </g>
  <g
     id="#ee9b4fff"
     transform="matrix(0.20086954,0,0,0.20086954,2.1898178,-0.31233958)">
    <path
       d="m 626.39,364.45 c 7.43,10.41 15.32,20.53 22.08,31.41 6.73,0.86 13.49,-0.25 20.24,-0.22 2.95,3.91 6.03,7.73 9.18,11.49 l 0.34,-1.85 c 0.09,0.64 0.19,1.29 0.3,1.94 -11.84,-0.76 -23.78,-0.31 -35.57,-1.71 -2.87,-5.55 -6.96,-10.36 -9.9,-15.86 -2.28,-8.18 -4.14,-16.47 -6.65,-24.58 l -0.02,-0.62 z"
       id="path246"
       style="fill:#ee9b4f" />
  </g>
  <g
     id="#fefeffff"
     transform="matrix(0.20086954,0,0,0.20086954,2.1898178,-0.31233958)">
    <path
       d="m 916.8,418.92 c 5.04,-1.05 9.94,-2.68 15,-3.65 -2.21,4.75 -4.29,9.62 -7.3,13.94 -0.04,0.79 -0.07,1.59 -0.09,2.39 -6.75,1.74 -13.41,3.8 -20.11,5.72 -1.66,0.48 -3.39,0.64 -5.09,0.52 6.87,-5.27 12.67,-11.82 17.59,-18.92 z"
       id="path249"
       style="fill:#fefeff" />
  </g>
</svg>
